<svg width="312" height="58" viewBox="0 0 312 58" fill="none" xmlns="http://www.w3.org/2000/svg">
<g clip-path="url(#clip0_24203_11442)">
<path d="M16.4192 32.19L22.9059 32.1854C24.4692 32.1854 26.0815 32.166 27.6417 32.1933C27.8574 32.1821 28.1371 32.1895 28.3581 32.189L35.0912 32.1854C36.6003 32.1854 38.1534 32.1674 39.6595 32.1925C39.4525 33.6513 39.3617 35.211 39.1676 36.6826C39.0845 37.3134 38.9669 37.9331 38.8592 38.5595C39.0965 38.5546 39.3388 38.5562 39.5764 38.5551C40.2589 38.5888 41.0951 38.568 41.7871 38.5682C42.9298 38.5713 44.0725 38.568 45.2152 38.5581C45.222 39.5072 45.2231 40.4563 45.2182 41.4052C45.2179 41.6332 45.2051 42.5304 45.2382 42.7152C45.2469 42.9356 45.2551 43.2066 45.2387 43.427C45.1977 43.7969 45.2125 44.4999 45.2171 44.8931C45.2242 45.5056 45.2043 46.1895 45.2289 46.7965C43.8636 46.7946 42.4357 46.7798 41.0759 46.7954C39.5326 46.8132 39.0221 47.0598 37.3916 46.7397C37.2814 47.2534 37.1228 47.4831 36.7756 47.869C36.3794 48.112 36.2344 48.1801 35.7606 48.1995C35.5421 48.1582 35.2265 48.1181 35.022 48.0653C34.6433 49.2512 33.6507 49.2766 32.642 48.9427C32.6237 48.9365 32.6054 48.9302 32.587 48.9233C32.2474 49.9941 31.4668 50.0067 30.5289 49.8981C29.9202 50.7176 29.2883 50.8087 28.3551 50.4819C28.3036 50.442 27.7655 50.1478 27.6441 50.0701C27.5782 49.9906 27.4068 49.8702 27.3158 49.9747C26.5502 50.856 25.2612 51.6604 24.0749 51.1371C23.5404 50.9011 23.3673 50.5024 23.1789 49.9875C22.5245 50.2216 21.76 50.2582 21.2887 49.6567C21.1269 49.45 21.0641 49.2471 20.9824 49.0037C20.855 49.0371 20.7455 49.0655 20.6199 49.1076C20.292 49.2028 20.1361 49.1719 19.8196 49.1C19.1918 48.7705 19.0609 48.5181 18.9244 47.8479C17.9966 47.8662 17.534 47.7331 17.1659 46.7974C16.4151 46.7738 15.5642 46.7932 14.8072 46.7932L10.6976 46.796C10.716 45.9913 10.6688 45.169 10.6863 44.3618C10.6927 44.0671 10.6916 43.7523 10.6795 43.4587C10.6827 43.2181 10.6841 42.9774 10.6836 42.7368C10.7164 42.4702 10.7008 41.8949 10.7031 41.6209C10.712 40.5597 10.6393 39.5209 10.5654 38.4635C11.095 38.4345 11.6164 38.367 12.1551 38.3536C13.5568 38.3186 14.9647 38.3391 16.3663 38.3623C16.3007 37.9916 16.2204 37.6246 16.1549 37.2519C15.8592 35.5692 15.8029 33.8821 15.6356 32.1906C15.8835 32.1821 16.1684 32.1895 16.4192 32.19Z" fill="#8F6D1B" style="fill:#8F6D1B;fill:color(display-p3 0.5608 0.4275 0.1059);fill-opacity:1;"/>
<path d="M16.4193 32.19L22.906 32.1854C24.4693 32.1854 26.0816 32.166 27.6418 32.1933C27.8575 32.1821 28.1372 32.1895 28.3582 32.189C28.3478 33.2496 28.3377 34.3866 28.3568 35.4461L27.6503 35.4833C26.8607 35.5268 26.3101 35.9629 25.7026 36.4352C24.978 36.9984 24.4781 36.8535 23.5991 36.8483C23.1003 36.8456 22.5552 36.6484 22.0453 36.8141C20.5184 37.2123 19.6852 38.5149 17.9518 38.4282C17.7254 38.417 17.3652 38.4583 17.1253 38.4075C16.8907 38.3853 16.6055 38.3763 16.3664 38.3623C16.3008 37.9916 16.2205 37.6246 16.1551 37.2519C15.8593 35.5692 15.803 33.8821 15.6357 32.1906C15.8836 32.1821 16.1686 32.1895 16.4193 32.19Z" fill="#005E9E" style="fill:#005E9E;fill:color(display-p3 0.0000 0.3686 0.6196);fill-opacity:1;"/>
<path d="M15.6357 32.1906C15.8836 32.1821 16.1686 32.1895 16.4193 32.19C16.5027 34.2769 16.7387 36.355 17.1253 38.4074C16.8907 38.3853 16.6055 38.3763 16.3664 38.3623C16.3008 37.9915 16.2205 37.6246 16.1551 37.2519C15.8593 35.5692 15.803 33.8821 15.6357 32.1906Z" fill="#FEFEFE" style="fill:#FEFEFE;fill:color(display-p3 0.9961 0.9961 0.9961);fill-opacity:1;"/>
<path d="M27.6416 32.1933C27.8573 32.1821 28.1371 32.1894 28.358 32.1889C28.3476 33.2496 28.3375 34.3865 28.3566 35.4461L27.6501 35.4833C27.6181 34.4308 27.649 33.2597 27.6416 32.1933Z" fill="#FEFEFE" style="fill:#FEFEFE;fill:color(display-p3 0.9961 0.9961 0.9961);fill-opacity:1;"/>
<path d="M28.3583 32.1888L35.0915 32.1852C36.6006 32.1852 38.1537 32.1672 39.6598 32.1923C39.4528 33.6511 39.362 35.2108 39.1679 36.6824C39.0848 37.3133 38.9672 37.9329 38.8594 38.5593C38.4416 38.5681 37.991 38.5744 37.5754 38.5555C37.0517 38.2118 36.3386 37.2635 35.8596 36.7776C34.6143 35.5149 33.7404 35.3401 32.0607 35.3273C31.2912 35.3243 30.5218 35.3407 29.7531 35.3768C29.337 35.3981 28.8081 35.455 28.4035 35.4471L28.357 35.446C28.3378 34.3864 28.348 33.2494 28.3583 32.1888Z" fill="#005E9E" style="fill:#005E9E;fill:color(display-p3 0.0000 0.3686 0.6196);fill-opacity:1;"/>
<path d="M22.3319 37.5826C22.6961 37.5444 23.3112 37.6026 23.7212 37.6007C23.4898 37.8933 23.1652 38.0942 22.8601 38.3026C22.2498 38.719 20.6924 39.6542 20.296 40.1735C20.1434 40.3733 20.0083 40.6337 20.0528 40.8926C20.0898 41.1081 20.2395 41.2773 20.4155 41.3968C21.0619 41.8354 23.5899 42.2322 24.4491 42.2171C24.9465 42.2084 25.4907 42.1272 25.948 41.9237C26.514 41.6719 27.4414 40.8059 27.9532 40.7318C28.2406 40.6903 28.604 40.8863 28.8463 41.0263C29.3855 41.3386 29.872 41.7351 30.3833 42.0889L33.7764 44.421C34.5866 44.9723 35.4296 45.4087 36.2255 45.9695C36.5835 46.2222 36.6669 46.7499 36.3519 47.083C35.8023 47.6648 35.0459 47.2328 34.5447 46.8276C34.3487 46.6692 34.1152 46.5194 33.9068 46.3761C33.0244 45.8024 32.1204 45.2635 31.2394 44.6863C30.7986 44.3972 30.403 44.0628 29.9491 43.796C29.4632 43.5102 29.2704 43.5854 28.9171 43.9778C29.1766 44.2381 30.0336 44.8121 30.3734 45.0407C31.191 45.5853 32.0122 46.1246 32.8368 46.658C33.2093 46.8943 34.064 47.2681 34.1761 47.719C34.2065 47.8379 34.1843 47.9642 34.1154 48.0662C34.0318 48.1893 33.8975 48.2645 33.7526 48.2915C32.7898 48.4712 31.1063 47.1365 30.3108 46.6031C29.476 46.0215 28.49 45.3488 27.606 44.841C27.4045 44.9819 27.2785 45.0737 27.0949 45.2348C27.2354 45.3786 27.4023 45.511 27.5614 45.6332C28.7585 46.5525 30.0989 47.2744 31.345 48.122C31.6214 48.3101 31.929 48.6815 31.5984 48.9833C31.2553 49.2967 30.6644 49.0755 30.2895 48.9101C29.3535 48.4006 28.4851 47.7425 27.6213 47.1204C27.1346 46.7707 26.613 46.4655 26.131 46.1062C26.0264 46.1369 25.7868 46.2252 25.7004 46.2315C25.0806 46.2758 24.6665 46.0767 24.0902 46.3955C23.7373 45.2898 22.5259 44.8812 21.5501 45.4604C20.8694 43.2521 18.4935 45.1878 17.4598 45.9889C15.5251 46.0398 13.4344 45.9856 11.4799 45.9982C11.4535 43.7446 11.5489 41.4515 11.4224 39.2063C12.7801 39.0554 14.3553 39.1421 15.7296 39.15C16.8805 39.1568 17.9724 39.3813 19.1365 39.104C20.375 38.8093 21.1097 37.878 22.3319 37.5826Z" fill="#FBB200" style="fill:#FBB200;fill:color(display-p3 0.9843 0.6980 0.0000);fill-opacity:1;"/>
<path d="M31.571 36.1372C31.6156 36.1356 31.6604 36.135 31.705 36.1353C33.4377 36.1402 34.3672 36.277 35.5287 37.6688C35.8208 38.0185 36.9336 39.311 37.3536 39.3605C37.824 39.4157 38.7886 39.389 39.3101 39.389L44.3769 39.3879L44.3761 45.9996C43.2943 45.9744 42.211 46.0064 41.1077 45.9958C40.0883 45.9859 38.5606 46.2304 37.6 45.9208C37.2817 45.8183 36.3895 45.1675 36.089 44.9515C35.6447 44.6288 35.1951 44.3136 34.7401 44.0057L29.7122 40.5995C29.2159 40.2702 28.3556 39.6257 27.8809 39.4015C27.1612 39.6963 26.3793 40.6659 25.5741 41.0337C24.3029 41.6145 22.9097 41.0424 21.6899 40.6402C21.9864 40.046 22.615 39.7742 23.1391 39.3906C24.4032 38.465 25.9817 37.0896 27.3178 36.3478C27.3797 36.3133 31.1988 36.1498 31.571 36.1372Z" fill="#FBB200" style="fill:#FBB200;fill:color(display-p3 0.9843 0.6980 0.0000);fill-opacity:1;"/>
<path d="M24.4969 46.9606C24.6301 46.9488 24.9491 46.9387 25.0501 47.0246C26.0685 47.8906 23.1324 49.1637 22.5727 49.296C22.4019 49.3318 22.1668 49.3524 22.0246 49.2542C21.1288 48.6373 22.9467 47.7645 23.3262 47.4706C23.6666 47.207 24.137 47.0322 24.4969 46.9606Z" fill="#FBB200" style="fill:#FBB200;fill:color(display-p3 0.9843 0.6980 0.0000);fill-opacity:1;"/>
<path d="M22.3309 46.0055C22.4778 45.991 22.6811 45.9943 22.8139 46.064C22.9081 46.1132 22.9779 46.1988 23.007 46.3008C23.0452 46.4309 23.0153 46.5729 22.9526 46.6902C22.7055 47.1531 20.9499 48.1345 20.4338 48.2889C19.9497 48.3942 19.8478 48.2159 19.7124 47.7916C20.1086 47.0164 21.491 46.1151 22.3309 46.0055Z" fill="#FBB200" style="fill:#FBB200;fill:color(display-p3 0.9843 0.6980 0.0000);fill-opacity:1;"/>
<path d="M26.0949 48.4143C27.7895 48.4827 26.2366 50.4164 24.8072 50.4711C24.0942 50.4235 23.705 49.9409 24.2579 49.3426C24.6918 48.8734 25.4452 48.455 26.0949 48.4143Z" fill="#FBB200" style="fill:#FBB200;fill:color(display-p3 0.9843 0.6980 0.0000);fill-opacity:1;"/>
<path d="M19.9762 45.1447C20.2596 45.1258 20.4316 45.4069 20.5691 45.6186C20.2752 46.1859 19.2906 46.9382 18.6569 47.0626C18.038 47.0607 17.9578 46.782 18.3547 46.3426C18.8135 45.8346 19.3916 45.486 19.9762 45.1447Z" fill="#FBB200" style="fill:#FBB200;fill:color(display-p3 0.9843 0.6980 0.0000);fill-opacity:1;"/>
<path d="M26.3706 47.1802C26.4823 47.2113 26.9535 47.5359 27.0836 47.6166C28.0734 48.2318 28.9162 48.7694 29.786 49.5427L29.6301 49.6843C29.0698 50.1101 28.3045 49.561 27.8547 49.2014C27.73 48.6209 27.5711 48.0546 26.9342 47.858C26.4379 47.7049 26.3866 47.6879 26.3706 47.1802Z" fill="#FBB200" style="fill:#FBB200;fill:color(display-p3 0.9843 0.6980 0.0000);fill-opacity:1;"/>
<path d="M41.1899 29.6414L56.0001 29.6446V30.3504V32.4859C55.8366 33.2313 55.7742 34.2594 55.6342 35.0592C55.2394 37.2604 54.5664 39.4028 53.6318 41.4347C53.45 41.8268 53.2124 42.3535 52.9783 42.7117L45.2384 42.7152C45.2053 42.5304 45.2182 41.6332 45.2184 41.4052C45.2234 40.4564 45.2223 39.5073 45.2154 38.5582C44.0727 38.568 42.93 38.5713 41.7873 38.5683C41.0953 38.568 40.2591 38.5888 39.5766 38.5551C39.339 38.5562 39.0967 38.5546 38.8594 38.5595C38.9671 37.9331 39.0847 37.3135 39.1678 36.6826C39.362 35.211 39.4527 33.6513 39.6597 32.1925C39.829 32.18 40.1229 32.1884 40.3018 32.1876C40.5963 32.1862 40.8907 32.1873 41.1852 32.1906L41.188 30.3498C41.1789 30.1284 41.188 29.8658 41.1899 29.6414Z" fill="#005E9E" style="fill:#005E9E;fill:color(display-p3 0.0000 0.3686 0.6196);fill-opacity:1;"/>
<path d="M41.1899 29.6414L56.0001 29.6446V30.3504L41.188 30.3498C41.179 30.1284 41.188 29.8658 41.1899 29.6414Z" fill="#FEFEFE" style="fill:#FEFEFE;fill:color(display-p3 0.9961 0.9961 0.9961);fill-opacity:1;"/>
<path d="M39.6597 32.1925C39.829 32.1799 40.1229 32.1884 40.3018 32.1876C40.2298 34.012 40.13 35.7669 39.7784 37.5645C39.7202 37.862 39.6638 38.274 39.5766 38.5551C39.339 38.5562 39.0967 38.5546 38.8594 38.5595C38.9671 37.9331 39.0847 37.3134 39.1678 36.6826C39.362 35.211 39.4527 33.6513 39.6597 32.1925Z" fill="#FEFEFE" style="fill:#FEFEFE;fill:color(display-p3 0.9961 0.9961 0.9961);fill-opacity:1;"/>
<path d="M0 29.6445L14.6741 29.6743C14.6747 29.895 14.6705 30.1326 14.6767 30.3516L14.6846 32.1883C15.0017 32.1864 15.3187 32.187 15.6358 32.1905C15.803 33.882 15.8593 35.5691 16.1551 37.2518C16.2206 37.6245 16.3008 37.9915 16.3664 38.3623C14.9649 38.339 13.5569 38.3185 12.1553 38.3535C11.6165 38.3669 11.0951 38.4345 10.5656 38.4634C10.6395 39.5208 10.7121 40.5596 10.7032 41.6208C10.7009 41.8948 10.7166 42.4701 10.6838 42.7367C8.18204 42.6454 5.46304 42.7214 2.93724 42.7146C2.858 42.4715 2.71756 42.2164 2.60508 41.9831C2.45539 41.6668 2.31114 41.3477 2.1724 41.0261C1.66505 39.838 1.23745 38.6174 0.892432 37.3724C0.561605 36.1646 0.312758 34.9539 0.161149 33.7122C0.119408 33.3704 0.101164 32.9047 0 32.5834V30.3481V29.6445Z" fill="#005E9E" style="fill:#005E9E;fill:color(display-p3 0.0000 0.3686 0.6196);fill-opacity:1;"/>
<path d="M0 29.6445L14.6741 29.6743C14.6747 29.895 14.6705 30.1326 14.6767 30.3516L0 30.3481V29.6445Z" fill="#FEFEFE" style="fill:#FEFEFE;fill:color(display-p3 0.9961 0.9961 0.9961);fill-opacity:1;"/>
<path d="M45.2387 43.4268C46.785 43.4607 48.3315 43.4686 49.8781 43.4505C50.7608 43.4467 51.711 43.4276 52.5873 43.459C52.0992 44.4253 51.2147 45.7852 50.5852 46.6514C47.1623 51.3578 42.3367 54.8597 36.8004 56.6543C36.6891 56.6909 36.5557 56.7298 36.4488 56.7721C36.1587 56.5148 35.9074 56.2193 35.6446 55.9737C35.1078 55.472 34.0217 54.5934 33.3472 54.3022C34.4437 52.4073 35.6203 50.5788 36.4838 48.5575C36.5819 48.3281 36.6771 48.0976 36.7755 47.8687C37.1228 47.4829 37.2814 47.2532 37.3916 46.7395C39.0221 47.0596 39.5326 46.813 41.0759 46.7952C42.4357 46.7796 43.8636 46.7944 45.2288 46.7963C45.2042 46.1893 45.2242 45.5054 45.2171 44.8929C45.2124 44.4997 45.1977 43.7967 45.2387 43.4268Z" fill="#005E9E" style="fill:#005E9E;fill:color(display-p3 0.0000 0.3686 0.6196);fill-opacity:1;"/>
<path d="M3.4248 43.4688C4.27654 43.4223 5.35757 43.4497 6.22325 43.4494C7.70872 43.445 9.1942 43.448 10.6796 43.4587C10.6917 43.7524 10.6928 44.0671 10.6864 44.3619C10.6689 45.169 10.7162 45.9913 10.6977 46.796L14.8074 46.7933C15.5643 46.7933 16.4152 46.7738 17.166 46.7974C17.5342 47.7331 17.9967 47.8662 18.9245 47.8479C19.0611 48.5181 19.1919 48.7705 19.8197 49.1C20.3079 50.279 20.8122 51.2476 21.4758 52.3399C21.8714 52.991 22.2849 53.6404 22.6536 54.3049C21.5356 54.8293 20.4028 55.881 19.5771 56.7901C19.4567 56.7316 18.9982 56.5862 18.8499 56.535C13.5171 54.7041 8.82172 51.3424 5.50225 46.7722C4.89694 45.9388 3.86854 44.4012 3.4248 43.4688Z" fill="#005E9E" style="fill:#005E9E;fill:color(display-p3 0.0000 0.3686 0.6196);fill-opacity:1;"/>
<path d="M35.0221 48.0652C35.2266 48.118 35.5422 48.1582 35.7607 48.1994C35.7158 48.4805 35.4304 48.9973 35.2895 49.2792C34.5122 50.8709 33.6218 52.4052 32.6257 53.8697C32.2298 53.7398 31.839 53.6001 31.4423 53.4713C30.4303 53.1429 29.4035 53.0139 28.3535 52.8837C28.3535 52.0951 28.3404 51.2671 28.3552 50.4818C29.2884 50.8086 29.9203 50.7175 30.529 49.898C31.4669 50.0066 32.2475 49.994 32.5872 48.9232C32.6055 48.9301 32.6238 48.9364 32.6421 48.9426C33.6508 49.2765 34.6434 49.2511 35.0221 48.0652Z" fill="#005E9E" style="fill:#005E9E;fill:color(display-p3 0.0000 0.3686 0.6196);fill-opacity:1;"/>
<path d="M20.9826 49.0037C21.0643 49.247 21.1271 49.4499 21.2889 49.6566C21.7602 50.2582 22.5246 50.2216 23.1791 49.9875C23.3674 50.5024 23.5406 50.901 24.075 51.137C25.2614 51.6604 26.5503 50.8559 27.316 49.9746C27.4069 49.8702 27.5784 49.9905 27.6443 50.0701L27.6476 52.8769C26.9089 52.9961 26.248 53.0382 25.4836 53.2124C24.6925 53.3929 24.2065 53.5832 23.4575 53.864C23.3039 53.7254 23.0886 53.4194 22.9608 53.2408C22.0345 51.9467 21.3511 50.5139 20.6201 49.1076C20.7457 49.0655 20.8551 49.037 20.9826 49.0037Z" fill="#005E9E" style="fill:#005E9E;fill:color(display-p3 0.0000 0.3686 0.6196);fill-opacity:1;"/>
<path d="M23.856 54.5189C25.3928 54.0825 25.8804 53.6682 27.6472 53.7593L27.6469 58H26.6592C25.7921 57.2051 24.4467 55.5235 23.856 54.5189Z" fill="#005E9E" style="fill:#005E9E;fill:color(display-p3 0.0000 0.3686 0.6196);fill-opacity:1;"/>
<path d="M28.3554 53.7129C29.8628 53.7711 30.6963 53.9601 32.1006 54.5338C31.8723 54.8684 31.6774 55.2242 31.4414 55.5501C30.8223 56.4054 30.0922 57.237 29.3635 58.0001H28.354L28.3554 53.7129Z" fill="#005E9E" style="fill:#005E9E;fill:color(display-p3 0.0000 0.3686 0.6196);fill-opacity:1;"/>
<path d="M32.8428 54.9236C33.9707 55.5019 34.759 56.089 35.5813 57.0613C34.6805 57.3052 33.7973 57.4862 32.8835 57.6577C32.4747 57.7345 31.1425 57.8841 30.8344 58H30.6006C30.7832 57.5264 31.8868 56.258 32.2289 55.7969C32.4411 55.5109 32.6361 55.2361 32.8428 54.9236Z" fill="#005E9E" style="fill:#005E9E;fill:color(display-p3 0.0000 0.3686 0.6196);fill-opacity:1;"/>
<path d="M23.0551 54.9131C23.2043 54.9902 24.5226 56.7809 24.742 57.0598C24.982 57.3625 25.2305 57.6584 25.487 57.9471C25.1642 57.9061 24.8118 57.8966 24.4853 57.8575C24.0359 57.8033 23.5867 57.7371 23.1387 57.6726C22.2246 57.4889 21.3147 57.2846 20.4097 57.0601C20.6357 56.8214 20.8181 56.5857 21.0713 56.356C21.6548 55.8269 22.3894 55.3418 23.0551 54.9131Z" fill="#005E9E" style="fill:#005E9E;fill:color(display-p3 0.0000 0.3686 0.6196);fill-opacity:1;"/>
<path d="M28.3223 14.5259L33.7738 14.5272L35.8281 14.528C36.133 14.5281 36.5508 14.5411 36.8464 14.5254L37.7015 14.5247C38.8477 14.5396 40.05 14.4982 41.1848 14.5342C41.1935 15.2946 41.1563 16.2617 41.1889 16.9984C41.1861 17.2383 41.1807 17.4829 41.1872 17.7222V25.6853L41.1864 28.283C41.1864 28.6931 41.1686 29.2468 41.1897 29.6413C41.1878 29.8658 41.1788 30.1283 41.1878 30.3497L41.185 32.1905C40.8905 32.1872 40.5961 32.1861 40.3016 32.1875C40.1227 32.1883 39.8288 32.1799 39.6595 32.1924C38.1534 32.1673 36.6003 32.1853 35.0912 32.1853L28.3581 32.1889C28.1372 32.1894 27.8574 32.182 27.6417 32.1933C26.0815 32.1659 24.4692 32.1853 22.9059 32.1853L16.4192 32.19C16.1685 32.1894 15.8835 32.182 15.6356 32.1905C15.3186 32.187 15.0015 32.1864 14.6845 32.1883L14.6766 30.3517C14.6704 30.1326 14.6745 29.895 14.6739 29.6743C14.7103 27.6133 14.6757 25.4897 14.6825 23.4214C14.6421 21.495 14.679 19.5598 14.6762 17.6336L14.6739 17.0357C14.6871 16.9111 14.6779 16.7318 14.6746 16.6044C14.6569 15.9151 14.6885 15.2153 14.6597 14.5275C15.4392 14.5387 16.2343 14.5306 17.015 14.5355C17.3024 14.5374 18.061 14.5573 18.2973 14.5223C18.5626 14.5309 18.799 14.5377 19.0655 14.5303C19.8817 14.5079 20.8045 14.534 21.6321 14.5339L27.6447 14.532C27.8107 14.5304 27.9862 14.5246 28.1511 14.5355L28.3223 14.5259Z" fill="#FB0000" style="fill:#FB0000;fill:color(display-p3 0.9843 0.0000 0.0000);fill-opacity:1;"/>
<path d="M27.6447 14.5321C27.8107 14.5305 27.9862 14.5247 28.1511 14.5355L28.1456 20.2138C28.1456 21.2372 28.1186 22.4165 28.1497 23.4287C27.173 23.4035 26.0823 23.4279 25.099 23.428L18.3539 23.4282C17.1545 23.4283 15.8764 23.4492 14.6825 23.4214C14.6421 21.495 14.679 19.5598 14.6762 17.6337L14.6739 17.0357C14.6871 16.9112 14.6779 16.7319 14.6746 16.6044C14.6569 15.9152 14.6885 15.2154 14.6597 14.5276C15.4392 14.5387 16.2343 14.5306 17.015 14.5356C17.3024 14.5374 18.061 14.5573 18.2973 14.5223C18.5626 14.531 18.799 14.5377 19.0655 14.5303C19.8817 14.5079 20.8045 14.534 21.6321 14.5339L27.6447 14.5321Z" fill="#1C2090" style="fill:#1C2090;fill:color(display-p3 0.1098 0.1255 0.5647);fill-opacity:1;"/>
<path d="M21.1062 17.3741C21.9313 17.2125 22.7451 17.7003 22.9913 18.5042C23.2375 19.3081 22.8365 20.1681 22.0625 20.4962C21.485 20.741 20.8185 20.6354 20.3451 20.224C19.8717 19.8126 19.6741 19.1674 19.8359 18.5614C19.9978 17.9555 20.4907 17.4947 21.1062 17.3741Z" fill="#FEFEFE" style="fill:#FEFEFE;fill:color(display-p3 0.9961 0.9961 0.9961);fill-opacity:1;"/>
<path d="M19.8145 16.231C19.9307 16.2782 20.7131 17.0841 20.8854 17.2388C20.7844 17.2829 20.6824 17.3305 20.5818 17.376C20.3987 17.4731 20.3367 17.5247 20.1731 17.6549C20.1158 17.3039 19.9112 16.5968 19.8145 16.231Z" fill="#FEFEFE" style="fill:#FEFEFE;fill:color(display-p3 0.9961 0.9961 0.9961);fill-opacity:1;"/>
<path d="M19.5905 18.6013L19.6303 18.6145C19.6401 18.8862 19.6176 19.0843 19.6375 19.3854C19.3219 19.2727 18.9928 19.1858 18.6689 19.1008C18.5389 19.0648 18.324 19.0301 18.186 19.0043C18.5389 18.8558 19.198 18.6998 19.5905 18.6013Z" fill="#FEFEFE" style="fill:#FEFEFE;fill:color(display-p3 0.9961 0.9961 0.9961);fill-opacity:1;"/>
<path d="M21.9546 17.2418C22.3087 16.8892 22.6646 16.5384 23.0223 16.1895C22.9722 16.3833 22.6947 17.5416 22.6298 17.6433C22.456 17.4576 22.1877 17.3361 21.9546 17.2418Z" fill="#FEFEFE" style="fill:#FEFEFE;fill:color(display-p3 0.9961 0.9961 0.9961);fill-opacity:1;"/>
<path d="M23.1788 18.6067C23.4961 18.6478 24.3381 18.8883 24.6436 19.0082C24.4139 19.0486 23.2667 19.3812 23.1704 19.3582C23.2405 19.0993 23.2417 18.8677 23.1788 18.6067Z" fill="#FEFEFE" style="fill:#FEFEFE;fill:color(display-p3 0.9961 0.9961 0.9961);fill-opacity:1;"/>
<path d="M21.0107 20.7578C21.2827 20.809 21.5391 20.7972 21.8101 20.7546C21.6868 21.1022 21.6197 21.4727 21.505 21.8325C21.4736 21.96 21.4483 22.1096 21.423 22.2401C21.2964 21.7472 21.1185 21.2501 21.0107 20.7578Z" fill="#FEFEFE" style="fill:#FEFEFE;fill:color(display-p3 0.9961 0.9961 0.9961);fill-opacity:1;"/>
<path d="M21.4156 15.7012C21.4677 15.9869 21.7999 17.0617 21.7952 17.1939C21.5416 17.1527 21.283 17.1525 21.0293 17.1933C21.0507 16.9498 21.3401 16.083 21.4156 15.7012Z" fill="#FEFEFE" style="fill:#FEFEFE;fill:color(display-p3 0.9961 0.9961 0.9961);fill-opacity:1;"/>
<path d="M18.6699 17.3923C19.1335 17.4817 19.6051 17.6181 20.057 17.7548L19.8034 18.1557C19.7592 18.2346 19.7105 18.3384 19.6688 18.421C19.3297 18.0684 19.0005 17.7644 18.6699 17.3923Z" fill="#FEFEFE" style="fill:#FEFEFE;fill:color(display-p3 0.9961 0.9961 0.9961);fill-opacity:1;"/>
<path d="M20.1757 20.3074C20.4084 20.5267 20.5726 20.6178 20.8738 20.7016L20.2146 21.3553L19.7979 21.774C19.929 21.2959 20.0483 20.7908 20.1757 20.3074Z" fill="#FEFEFE" style="fill:#FEFEFE;fill:color(display-p3 0.9961 0.9961 0.9961);fill-opacity:1;"/>
<path d="M23.1494 19.5613C23.2694 19.6106 24.0497 20.4494 24.2108 20.6035C23.9165 20.5274 22.9998 20.3002 22.7578 20.1999C22.9028 20.0526 23.0843 19.7576 23.1494 19.5613Z" fill="#FEFEFE" style="fill:#FEFEFE;fill:color(display-p3 0.9961 0.9961 0.9961);fill-opacity:1;"/>
<path d="M19.6486 19.5461C19.7033 19.5968 19.9759 20.0955 20.0309 20.1904C19.7652 20.3006 19.1913 20.4377 18.9001 20.5148L18.6011 20.6097L19.6486 19.5461Z" fill="#FEFEFE" style="fill:#FEFEFE;fill:color(display-p3 0.9961 0.9961 0.9961);fill-opacity:1;"/>
<path d="M22.6312 20.3164C22.7488 20.6017 22.9066 21.4107 23.0224 21.7755C22.6865 21.4567 22.2772 21.0463 21.9585 20.708C22.0475 20.6753 22.1624 20.637 22.2475 20.601C22.3907 20.5288 22.5205 20.4325 22.6312 20.3164Z" fill="#FEFEFE" style="fill:#FEFEFE;fill:color(display-p3 0.9961 0.9961 0.9961);fill-opacity:1;"/>
<path d="M22.7563 17.7623C23.0968 17.6448 23.8227 17.4542 24.1776 17.3938C24.0412 17.533 23.2485 18.3681 23.1457 18.4011C23.0991 18.1974 22.8994 17.9158 22.7563 17.7623Z" fill="#FEFEFE" style="fill:#FEFEFE;fill:color(display-p3 0.9961 0.9961 0.9961);fill-opacity:1;"/>
<path d="M41.1875 17.7222L53.2436 17.7432L53.2535 17.7689C53.4848 18.3582 53.8105 18.9603 54.0574 19.564C54.9001 21.6258 55.5017 23.7829 55.7853 25.9939C55.8249 26.304 55.9091 27.2071 56.0002 27.4452V29.6445L41.19 29.6412C41.1689 29.2468 41.1867 28.693 41.1867 28.2829L41.1875 25.6853V17.7222Z" fill="#005E9E" style="fill:#005E9E;fill:color(display-p3 0.0000 0.3686 0.6196);fill-opacity:1;"/>
<path d="M14.6763 17.6335C14.6791 19.5597 14.6422 21.4949 14.6826 23.4213C14.6758 25.4896 14.7104 27.6132 14.6741 29.6743L0 29.6445V27.3886C0.0855351 27.1831 0.11221 26.6871 0.148834 26.446C0.220819 25.9721 0.263997 25.4473 0.352341 24.9786C0.704875 23.122 1.23636 21.3039 1.93936 19.5498C2.13203 19.058 2.48175 18.1989 2.72704 17.7425C5.06975 17.7722 7.46184 17.7484 9.80793 17.7482L13.0374 17.7466C13.2878 17.7465 14.5146 17.7817 14.6548 17.7159L14.6763 17.6335Z" fill="#005E9E" style="fill:#005E9E;fill:color(display-p3 0.0000 0.3686 0.6196);fill-opacity:1;"/>
<path d="M36.4733 3.2832C36.9338 3.39418 37.3451 3.56076 37.7861 3.72805C38.5969 4.02724 39.3934 4.36394 40.1729 4.73707C45.2367 7.16123 49.0701 10.6586 51.9628 15.4623C52.2706 15.9737 52.5353 16.478 52.8339 16.9857C52.2884 17.0175 51.6746 17.0049 51.123 17.005L48.4559 17.0048C46.0428 17.0044 43.5994 17.0251 41.1888 16.9985C41.1562 16.2617 41.1934 15.2947 41.1847 14.5343C40.0499 14.4983 38.8476 14.5396 37.7013 14.5247C37.5217 14.0735 37.3809 13.6308 37.2135 13.1789C36.9836 12.5763 36.7361 11.9805 36.4714 11.3923C35.5696 9.41731 34.4349 7.56094 33.3452 5.6874C34.466 5.27104 35.568 4.01979 36.4733 3.2832Z" fill="#005E9E" style="fill:#005E9E;fill:color(display-p3 0.0000 0.3686 0.6196);fill-opacity:1;"/>
<path d="M19.524 3.20605C20.3578 4.06477 21.5488 5.24685 22.6564 5.68853C20.9191 8.47538 19.357 11.409 18.2975 14.5223C18.0611 14.5573 17.3026 14.5374 17.0152 14.5356C16.2344 14.5306 15.4393 14.5387 14.6598 14.5276C14.6887 15.2154 14.6571 15.9152 14.6748 16.6045C14.6781 16.7319 14.6873 16.9112 14.674 17.0357C13.9696 17.0043 13.2358 17.0106 12.5278 17.0023C10.4629 16.9875 8.39793 16.9892 6.3331 17.0073C5.40111 17.009 4.05353 17.0499 3.16357 16.9883C3.41454 16.5624 3.6384 16.1165 3.89064 15.6887C4.44772 14.7385 5.0568 13.8197 5.71513 12.9366C9.15656 8.31717 14.0927 5.03127 19.524 3.20605Z" fill="#005E9E" style="fill:#005E9E;fill:color(display-p3 0.0000 0.3686 0.6196);fill-opacity:1;"/>
<path d="M23.3373 6.11548C24.8672 6.68718 25.9747 7.03603 27.6463 7.10002L27.6447 14.5319L21.6321 14.5338C20.8044 14.5339 19.8817 14.5078 19.0654 14.5302C19.8908 12.2647 21.0644 9.93606 22.2729 7.8546C22.5322 7.40788 23.0448 6.50775 23.3373 6.11548Z" fill="#005E9E" style="fill:#005E9E;fill:color(display-p3 0.0000 0.3686 0.6196);fill-opacity:1;"/>
<path d="M32.63 6.12012C32.8501 6.49973 33.0984 6.85424 33.3316 7.2253C33.6445 7.73055 33.9496 8.24052 34.2468 8.75499C34.9988 10.0788 35.6676 11.448 36.2498 12.8547C36.4141 13.2447 36.7942 14.1582 36.8464 14.5254C36.5508 14.5411 36.133 14.5281 35.8281 14.5279L33.7738 14.5271L28.3223 14.5258C28.3455 13.5953 28.3595 12.6645 28.3641 11.7337C28.3649 10.1874 28.3343 8.64993 28.3537 7.10269C29.416 7.04548 30.419 6.88473 31.4329 6.55125C31.8406 6.41712 32.2308 6.2538 32.63 6.12012Z" fill="#005E9E" style="fill:#005E9E;fill:color(display-p3 0.0000 0.3686 0.6196);fill-opacity:1;"/>
<path d="M28.354 2H29.3403C30.1067 2.66091 31.6093 4.62112 32.1408 5.47709C30.6656 6.0209 29.9574 6.28523 28.3548 6.27364L28.354 2Z" fill="#005E9E" style="fill:#005E9E;fill:color(display-p3 0.0000 0.3686 0.6196);fill-opacity:1;"/>
<path d="M26.6335 2H27.6464L27.6472 6.27386C26.218 6.31668 25.1674 6.00034 23.8555 5.47255C24.6753 4.23393 25.605 3.07172 26.6335 2Z" fill="#005E9E" style="fill:#005E9E;fill:color(display-p3 0.0000 0.3686 0.6196);fill-opacity:1;"/>
<path d="M25.2281 2.06548C25.3286 2.05584 25.2897 2.03991 25.3572 2.08954C25.3703 2.19024 25.306 2.3095 25.2414 2.3829C24.4849 3.24274 23.8207 4.18069 23.1093 5.07807C22.5834 4.81647 22.0845 4.47147 21.6093 4.12719C21.1611 3.7764 20.7787 3.41772 20.4927 2.92382C22.127 2.54122 23.5603 2.25359 25.2281 2.06548Z" fill="#005E9E" style="fill:#005E9E;fill:color(display-p3 0.0000 0.3686 0.6196);fill-opacity:1;"/>
<path d="M30.5454 2.11889C32.454 2.09625 33.7455 2.60944 35.5138 2.91844C35.2535 3.36886 34.8521 3.75921 34.4504 4.0842C33.9555 4.4748 33.416 4.8052 32.8428 5.0685C32.323 4.4366 31.8833 3.66659 31.3209 3.04433C31.2049 2.91623 30.5769 2.19932 30.5454 2.11889Z" fill="#005E9E" style="fill:#005E9E;fill:color(display-p3 0.0000 0.3686 0.6196);fill-opacity:1;"/>
</g>
<path d="M73.488 10.312H86.512V18.072H84.944V11.8H74.992V18.152H73.488V10.312ZM74.272 15.704H85.84V17.192H74.272V15.704ZM79.168 7.496H80.752V22.328H79.168V7.496ZM89.184 13.944H94.496V15.24H89.184V13.944ZM88.784 16.616H103.264V17.928H88.784V16.616ZM89.184 11.368H102.832V12.632H89.184V11.368ZM89.632 19.048H102.288V20.296H89.632V19.048ZM95.2 11.864H96.688V22.36H95.2V11.864ZM91.36 13H92.768V16.264H91.36V13ZM99.248 13H100.656V16.264H99.248V13ZM92.448 7.496H93.92V10.968H92.448V7.496ZM97.984 7.496H99.456V10.968H97.984V7.496ZM88.896 8.536H95.696V9.88H88.896V8.536ZM96.272 8.536H103.072V9.88H96.272V8.536ZM97.44 13.88H102.752V15.176H97.44V13.88ZM111.296 12.952H112.848C112.901 13.9973 113.051 14.9893 113.296 15.928C113.552 16.856 113.867 17.6773 114.24 18.392C114.624 19.1067 115.035 19.6667 115.472 20.072C115.92 20.4667 116.363 20.664 116.8 20.664C117.035 20.664 117.2 20.4827 117.296 20.12C117.392 19.7573 117.461 19.1653 117.504 18.344C117.675 18.4933 117.888 18.6373 118.144 18.776C118.4 18.904 118.629 19 118.832 19.064C118.757 19.896 118.635 20.536 118.464 20.984C118.304 21.432 118.08 21.7413 117.792 21.912C117.515 22.0827 117.163 22.168 116.736 22.168C116.011 22.168 115.333 21.9227 114.704 21.432C114.075 20.9413 113.515 20.2693 113.024 19.416C112.544 18.5627 112.155 17.5813 111.856 16.472C111.557 15.3627 111.371 14.1893 111.296 12.952ZM106.624 15.352H118.512V16.76H106.624V15.352ZM106.624 8.28H117.344V13.176H106.624V11.768H115.808V9.688H106.624V8.28ZM105.744 22.424L105.632 21.112L106.368 20.568L111.584 19.224C111.584 19.3627 111.589 19.5227 111.6 19.704C111.621 19.8747 111.643 20.0453 111.664 20.216C111.696 20.3867 111.723 20.5307 111.744 20.648C110.773 20.9147 109.957 21.1387 109.296 21.32C108.635 21.512 108.091 21.6667 107.664 21.784C107.237 21.9013 106.896 21.9973 106.64 22.072C106.395 22.1467 106.208 22.2107 106.08 22.264C105.952 22.3173 105.84 22.3707 105.744 22.424ZM105.744 22.424C105.701 22.296 105.637 22.1413 105.552 21.96C105.477 21.7893 105.392 21.624 105.296 21.464C105.211 21.304 105.125 21.176 105.04 21.08C105.211 20.984 105.381 20.8347 105.552 20.632C105.723 20.4187 105.808 20.1413 105.808 19.8V8.28H107.376V20.968C107.376 20.968 107.323 21 107.216 21.064C107.109 21.128 106.976 21.208 106.816 21.304C106.656 21.4107 106.491 21.528 106.32 21.656C106.149 21.784 106.011 21.912 105.904 22.04C105.797 22.1787 105.744 22.3067 105.744 22.424ZM123.424 11.464H132.592V12.568H123.424V11.464ZM129.984 10.36L130.672 9.656C130.96 9.79467 131.264 9.96533 131.584 10.168C131.904 10.36 132.149 10.5413 132.32 10.712L131.6 11.48C131.429 11.2987 131.189 11.1013 130.88 10.888C130.571 10.6747 130.272 10.4987 129.984 10.36ZM130.88 13.176L132.064 13.416C131.669 14.888 131.083 16.1733 130.304 17.272C129.536 18.36 128.613 19.256 127.536 19.96C127.483 19.8747 127.403 19.7733 127.296 19.656C127.189 19.5387 127.083 19.4213 126.976 19.304C126.869 19.1867 126.768 19.096 126.672 19.032C127.728 18.424 128.608 17.624 129.312 16.632C130.016 15.64 130.539 14.488 130.88 13.176ZM123.248 17.816C123.856 17.7307 124.571 17.6293 125.392 17.512C126.224 17.384 127.077 17.2453 127.952 17.096L127.984 18.136C127.184 18.2747 126.384 18.4187 125.584 18.568C124.795 18.7067 124.075 18.8347 123.424 18.952L123.248 17.816ZM124.944 14.296V15.672H126.432V14.296H124.944ZM123.92 13.448H127.504V16.52H123.92V13.448ZM127.968 9.912H129.232C129.275 10.9787 129.344 12.0133 129.44 13.016C129.547 14.008 129.685 14.904 129.856 15.704C130.037 16.4933 130.251 17.1333 130.496 17.624C130.752 18.1147 131.045 18.392 131.376 18.456C131.483 18.488 131.568 18.3547 131.632 18.056C131.707 17.7573 131.765 17.3573 131.808 16.856C131.893 16.9413 131.995 17.032 132.112 17.128C132.229 17.224 132.347 17.3093 132.464 17.384C132.592 17.4587 132.699 17.5227 132.784 17.576C132.667 18.4933 132.443 19.1227 132.112 19.464C131.792 19.7947 131.397 19.864 130.928 19.672C130.395 19.5333 129.952 19.176 129.6 18.6C129.248 18.0133 128.965 17.272 128.752 16.376C128.539 15.48 128.368 14.4773 128.24 13.368C128.123 12.2587 128.032 11.1067 127.968 9.912ZM121.232 8.216H134.768V22.392H133.264V9.576H122.672V22.392H121.232V8.216ZM122.144 20.312H134.08V21.688H122.144V20.312ZM140.8 10.328H151.296V11.464H140.8V10.328ZM149.264 7.736L150.336 8.728C149.771 8.856 149.141 8.968 148.448 9.064C147.755 9.16 147.029 9.24533 146.272 9.32C145.525 9.384 144.768 9.43733 144 9.48C143.243 9.52267 142.512 9.55467 141.808 9.576C141.787 9.42667 141.744 9.25067 141.68 9.048C141.616 8.83467 141.547 8.65333 141.472 8.504C142.155 8.48267 142.859 8.45067 143.584 8.408C144.309 8.35467 145.019 8.30133 145.712 8.248C146.416 8.184 147.072 8.10933 147.68 8.024C148.288 7.93867 148.816 7.84267 149.264 7.736ZM144.704 8.776L146.096 9.096C145.648 10.3973 145.008 11.528 144.176 12.488C143.344 13.448 142.384 14.2267 141.296 14.824C141.232 14.7387 141.141 14.6267 141.024 14.488C140.907 14.3493 140.784 14.2107 140.656 14.072C140.528 13.9227 140.411 13.8107 140.304 13.736C141.349 13.224 142.251 12.552 143.008 11.72C143.776 10.8773 144.341 9.896 144.704 8.776ZM148.176 10.712C148.432 11.096 148.747 11.48 149.12 11.864C149.504 12.248 149.92 12.6 150.368 12.92C150.827 13.24 151.28 13.5067 151.728 13.72C151.579 13.8373 151.408 14.008 151.216 14.232C151.035 14.4453 150.885 14.632 150.768 14.792C150.309 14.536 149.84 14.216 149.36 13.832C148.891 13.448 148.453 13.0267 148.048 12.568C147.643 12.0987 147.301 11.6293 147.024 11.16L148.176 10.712ZM144.448 13.224V14.376H147.648V13.224H144.448ZM143.072 12.312H149.088V15.288H143.072V12.312ZM141.232 15.992H150V17.16H142.672V22.344H141.232V15.992ZM149.488 15.992H150.944V20.856C150.944 21.208 150.896 21.48 150.8 21.672C150.704 21.8747 150.528 22.0293 150.272 22.136C150.005 22.2427 149.664 22.3067 149.248 22.328C148.843 22.3493 148.336 22.3547 147.728 22.344C147.707 22.152 147.653 21.9387 147.568 21.704C147.493 21.48 147.413 21.2773 147.328 21.096C147.733 21.1067 148.112 21.112 148.464 21.112C148.827 21.112 149.067 21.112 149.184 21.112C149.301 21.1013 149.381 21.0747 149.424 21.032C149.467 21 149.488 20.936 149.488 20.84V15.992ZM143.744 17.88H144.944V21.576H143.744V17.88ZM144.512 17.88H148.384V20.904H144.512V19.976H147.168V18.824H144.512V17.88ZM139.552 7.576L140.944 7.976C140.645 8.872 140.288 9.768 139.872 10.664C139.456 11.56 139.003 12.408 138.512 13.208C138.021 13.9973 137.509 14.696 136.976 15.304C136.933 15.1867 136.869 15.0267 136.784 14.824C136.699 14.6213 136.603 14.4187 136.496 14.216C136.4 14.0027 136.309 13.832 136.224 13.704C136.683 13.192 137.115 12.6107 137.52 11.96C137.936 11.3093 138.315 10.6107 138.656 9.864C139.008 9.10667 139.307 8.344 139.552 7.576ZM138.288 11.592L139.728 10.152V10.168V22.36H138.288V11.592ZM152.896 8.264H158.256V9.544H152.896V8.264ZM159.168 16.456H165.92V17.736H159.168V16.456ZM152.688 13.112H158.688V14.456H152.688V13.112ZM155.424 13.656H156.848V20.664C156.848 21.016 156.805 21.2987 156.72 21.512C156.645 21.736 156.485 21.912 156.24 22.04C156.016 22.1467 155.728 22.2107 155.376 22.232C155.035 22.264 154.619 22.28 154.128 22.28C154.096 22.0773 154.037 21.8373 153.952 21.56C153.867 21.2933 153.776 21.0587 153.68 20.856C154.011 20.8667 154.315 20.8773 154.592 20.888C154.869 20.888 155.061 20.8827 155.168 20.872C155.264 20.8613 155.328 20.8453 155.36 20.824C155.403 20.792 155.424 20.728 155.424 20.632V13.656ZM165.424 16.456H166.96C166.96 16.456 166.955 16.536 166.944 16.696C166.933 16.8453 166.923 16.9733 166.912 17.08C166.816 18.04 166.715 18.8347 166.608 19.464C166.512 20.0827 166.405 20.568 166.288 20.92C166.171 21.272 166.032 21.5333 165.872 21.704C165.712 21.864 165.547 21.976 165.376 22.04C165.205 22.104 165.008 22.152 164.784 22.184C164.592 22.2053 164.336 22.216 164.016 22.216C163.707 22.216 163.365 22.2107 162.992 22.2C162.981 21.9867 162.939 21.7467 162.864 21.48C162.789 21.2133 162.699 20.984 162.592 20.792C162.912 20.824 163.205 20.8453 163.472 20.856C163.749 20.8667 163.952 20.872 164.08 20.872C164.208 20.872 164.309 20.8613 164.384 20.84C164.469 20.8187 164.549 20.7707 164.624 20.696C164.731 20.5893 164.832 20.392 164.928 20.104C165.024 19.8053 165.109 19.3787 165.184 18.824C165.269 18.2693 165.349 17.5547 165.424 16.68V16.456ZM161.936 14.936H163.456C163.381 15.7573 163.264 16.536 163.104 17.272C162.944 18.008 162.699 18.696 162.368 19.336C162.037 19.9653 161.579 20.536 160.992 21.048C160.416 21.56 159.664 21.9973 158.736 22.36C158.651 22.1787 158.523 21.9707 158.352 21.736C158.181 21.5013 158.016 21.3147 157.856 21.176C158.688 20.8773 159.355 20.5093 159.856 20.072C160.368 19.6347 160.763 19.1493 161.04 18.616C161.328 18.0827 161.536 17.5067 161.664 16.888C161.792 16.2693 161.883 15.6187 161.936 14.936ZM153.376 11.224L154.32 10.248C154.768 10.4187 155.232 10.6267 155.712 10.872C156.203 11.1067 156.667 11.3573 157.104 11.624C157.552 11.88 157.92 12.1253 158.208 12.36L157.2 13.448C156.933 13.2133 156.581 12.9627 156.144 12.696C155.717 12.4187 155.259 12.152 154.768 11.896C154.288 11.6293 153.824 11.4053 153.376 11.224ZM158.304 13.112H158.512L158.72 13.048L159.648 13.352C159.499 14.056 159.312 14.776 159.088 15.512C158.875 16.2373 158.651 16.8613 158.416 17.384L157.376 16.872C157.557 16.424 157.733 15.8747 157.904 15.224C158.075 14.5627 158.208 13.9387 158.304 13.352V13.112ZM164.704 9.768L166.288 10.008C165.925 10.9893 165.424 11.8267 164.784 12.52C164.155 13.2133 163.413 13.7947 162.56 14.264C161.707 14.7333 160.763 15.1227 159.728 15.432C159.675 15.3253 159.589 15.192 159.472 15.032C159.365 14.872 159.248 14.7173 159.12 14.568C159.003 14.408 158.891 14.28 158.784 14.184C159.776 13.9493 160.667 13.6453 161.456 13.272C162.256 12.888 162.933 12.408 163.488 11.832C164.043 11.2453 164.448 10.5573 164.704 9.768ZM161.392 7.48L162.816 7.88C162.56 8.44533 162.256 8.99467 161.904 9.528C161.552 10.0613 161.173 10.5627 160.768 11.032C160.373 11.4907 159.973 11.896 159.568 12.248C159.472 12.1627 159.349 12.0667 159.2 11.96C159.051 11.8427 158.896 11.736 158.736 11.64C158.587 11.5333 158.448 11.448 158.32 11.384C158.949 10.9147 159.536 10.3387 160.08 9.656C160.635 8.96267 161.072 8.23733 161.392 7.48ZM161.328 10.136C161.701 10.7973 162.197 11.4 162.816 11.944C163.435 12.4773 164.149 12.936 164.96 13.32C165.781 13.704 166.661 13.9973 167.6 14.2C167.493 14.296 167.376 14.4187 167.248 14.568C167.131 14.7173 167.019 14.872 166.912 15.032C166.805 15.192 166.715 15.3413 166.64 15.48C165.659 15.224 164.752 14.8667 163.92 14.408C163.088 13.9387 162.347 13.3787 161.696 12.728C161.045 12.0773 160.501 11.352 160.064 10.552L161.328 10.136ZM155.248 13.56L156.256 13.944C156.053 14.648 155.797 15.3733 155.488 16.12C155.179 16.856 154.832 17.544 154.448 18.184C154.075 18.8133 153.664 19.336 153.216 19.752C153.152 19.5387 153.045 19.2987 152.896 19.032C152.747 18.7547 152.608 18.5147 152.48 18.312C152.875 17.96 153.248 17.528 153.6 17.016C153.952 16.4933 154.272 15.9333 154.56 15.336C154.848 14.7387 155.077 14.1467 155.248 13.56ZM161.168 9.144H167.232V10.424H160.56L161.168 9.144ZM157.888 8.264H158.224L158.464 8.2L159.424 8.808C159.189 9.18133 158.901 9.56533 158.56 9.96C158.219 10.3547 157.856 10.7227 157.472 11.064C157.088 11.4053 156.704 11.704 156.32 11.96C156.192 11.8427 156.027 11.7147 155.824 11.576C155.632 11.4373 155.461 11.32 155.312 11.224C155.653 10.9893 155.989 10.7173 156.32 10.408C156.651 10.0987 156.955 9.77867 157.232 9.448C157.509 9.11733 157.728 8.81333 157.888 8.536V8.264ZM168.72 16.168H183.296V17.448H168.72V16.168ZM179.888 15.016L181.392 15.4C181.051 16.6267 180.571 17.656 179.952 18.488C179.333 19.32 178.56 19.9973 177.632 20.52C176.704 21.0427 175.584 21.4427 174.272 21.72C172.971 21.9973 171.456 22.1947 169.728 22.312C169.675 22.088 169.595 21.848 169.488 21.592C169.381 21.3467 169.264 21.1333 169.136 20.952C170.779 20.8773 172.208 20.728 173.424 20.504C174.64 20.28 175.675 19.944 176.528 19.496C177.381 19.048 178.08 18.4613 178.624 17.736C179.179 17 179.6 16.0933 179.888 15.016ZM168.896 10.744H183.072V12.024H168.896V10.744ZM175.216 8.744H176.72V15.016H175.216V8.744ZM174.56 11.064L175.792 11.576C175.429 12.0133 175.003 12.44 174.512 12.856C174.032 13.2613 173.515 13.64 172.96 13.992C172.405 14.344 171.824 14.6587 171.216 14.936C170.619 15.2133 170.021 15.4427 169.424 15.624C169.317 15.4427 169.173 15.2347 168.992 15C168.821 14.7653 168.656 14.5787 168.496 14.44C169.083 14.2907 169.664 14.104 170.24 13.88C170.827 13.6453 171.392 13.3787 171.936 13.08C172.48 12.7813 172.976 12.4613 173.424 12.12C173.872 11.7787 174.251 11.4267 174.56 11.064ZM180.464 7.512L181.568 8.568C180.832 8.73867 180.011 8.88267 179.104 9C178.197 9.11733 177.243 9.21867 176.24 9.304C175.248 9.37867 174.251 9.44267 173.248 9.496C172.245 9.53867 171.275 9.56533 170.336 9.576C170.325 9.416 170.288 9.21867 170.224 8.984C170.16 8.74933 170.091 8.55733 170.016 8.408C170.933 8.39733 171.877 8.37067 172.848 8.328C173.819 8.27467 174.773 8.21067 175.712 8.136C176.651 8.06133 177.525 7.97067 178.336 7.864C179.157 7.75733 179.867 7.64 180.464 7.512ZM170.912 19.304L172.08 18.312C173.104 18.5147 174.128 18.7333 175.152 18.968C176.187 19.2027 177.184 19.448 178.144 19.704C179.104 19.9493 180.005 20.2 180.848 20.456C181.701 20.7013 182.453 20.936 183.104 21.16L181.76 22.264C180.96 21.944 179.989 21.6133 178.848 21.272C177.707 20.9307 176.459 20.5893 175.104 20.248C173.76 19.9067 172.363 19.592 170.912 19.304ZM170.912 19.304C171.317 18.888 171.733 18.4133 172.16 17.88C172.587 17.3467 172.997 16.7973 173.392 16.232C173.797 15.656 174.139 15.1013 174.416 14.568L175.936 14.968C175.659 15.48 175.333 16.008 174.96 16.552C174.587 17.0853 174.208 17.592 173.824 18.072C173.44 18.552 173.083 18.9627 172.752 19.304H170.912ZM177.184 12.968L177.872 12.008C178.331 12.168 178.821 12.3493 179.344 12.552C179.867 12.7547 180.389 12.9627 180.912 13.176C181.445 13.3893 181.941 13.6027 182.4 13.816C182.869 14.0187 183.275 14.2053 183.616 14.376L182.896 15.464C182.576 15.2933 182.187 15.1067 181.728 14.904C181.28 14.6907 180.789 14.472 180.256 14.248C179.733 14.0133 179.205 13.7893 178.672 13.576C178.149 13.352 177.653 13.1493 177.184 12.968ZM188.48 9.256V10.648H195.6V9.256H188.48ZM186.96 8.056H197.2V11.848H186.96V8.056ZM187.76 15.656V16.584H196.24V15.656H187.76ZM187.76 17.592V18.552H196.24V17.592H187.76ZM187.76 13.72V14.632H196.24V13.72H187.76ZM186.256 12.632H197.808V19.624H186.256V12.632ZM189.328 19.464L190.704 20.392C190.277 20.648 189.776 20.8987 189.2 21.144C188.635 21.4 188.048 21.6293 187.44 21.832C186.832 22.0453 186.251 22.2213 185.696 22.36C185.568 22.2 185.392 22.0133 185.168 21.8C184.944 21.5867 184.741 21.4053 184.56 21.256C185.125 21.128 185.712 20.968 186.32 20.776C186.928 20.5733 187.499 20.36 188.032 20.136C188.565 19.9013 188.997 19.6773 189.328 19.464ZM193.056 20.504L194.384 19.528C194.949 19.6773 195.541 19.8587 196.16 20.072C196.789 20.2853 197.392 20.4987 197.968 20.712C198.555 20.9253 199.061 21.1227 199.488 21.304L198.16 22.376C197.755 22.184 197.259 21.976 196.672 21.752C196.096 21.528 195.488 21.304 194.848 21.08C194.219 20.856 193.621 20.664 193.056 20.504ZM203.808 13.08V15.32H212.128V13.08H203.808ZM202.528 12.104H213.472V16.296H202.528V12.104ZM205.2 10.376H210.832V11.4H205.2V10.376ZM207.312 12.44H208.56V15.8H207.312V12.44ZM204.608 13.512L205.664 13.176C205.845 13.4533 206.011 13.7573 206.16 14.088C206.32 14.4187 206.427 14.7067 206.48 14.952L205.36 15.336C205.307 15.08 205.211 14.7813 205.072 14.44C204.933 14.0987 204.779 13.7893 204.608 13.512ZM210.16 13.112L211.44 13.464C211.259 13.8053 211.077 14.1467 210.896 14.488C210.725 14.8187 210.565 15.1013 210.416 15.336L209.376 15C209.504 14.744 209.648 14.4347 209.808 14.072C209.968 13.7093 210.085 13.3893 210.16 13.112ZM203.456 16.952H212.688V22.28H211.136V17.976H204.944V22.344H203.456V16.952ZM204.32 18.872H211.776V19.896H204.32V18.872ZM204.32 20.808H211.792V21.848H204.32V20.808ZM207.792 7.4L209.136 7.88C208.56 8.62667 207.856 9.29867 207.024 9.896C206.192 10.4933 205.291 11.0213 204.32 11.48C203.349 11.928 202.357 12.3067 201.344 12.616C201.291 12.52 201.216 12.3973 201.12 12.248C201.024 12.0987 200.923 11.9493 200.816 11.8C200.709 11.6507 200.608 11.5333 200.512 11.448C201.493 11.192 202.448 10.872 203.376 10.488C204.304 10.0933 205.147 9.64 205.904 9.128C206.672 8.60533 207.301 8.02933 207.792 7.4ZM208.736 8.024C209.099 8.38667 209.536 8.73867 210.048 9.08C210.571 9.41067 211.136 9.72 211.744 10.008C212.363 10.296 213.003 10.552 213.664 10.776C214.336 11 214.997 11.1867 215.648 11.336C215.488 11.464 215.312 11.6453 215.12 11.88C214.939 12.1147 214.795 12.3227 214.688 12.504C214.037 12.3227 213.376 12.0987 212.704 11.832C212.032 11.5547 211.381 11.2453 210.752 10.904C210.133 10.552 209.552 10.1733 209.008 9.768C208.475 9.36267 208 8.94133 207.584 8.504L208.736 8.024Z" fill="#FDF8F6" style="fill:#FDF8F6;fill:color(display-p3 0.9922 0.9725 0.9647);fill-opacity:1;"/>
<path d="M80.26 41.56H82.26C82.1667 42.4 82.0667 43.2867 81.96 44.22C81.8533 45.14 81.7333 46.06 81.6 46.98C81.48 47.8867 81.36 48.7533 81.24 49.58C81.1333 50.3933 81.0267 51.1133 80.92 51.74H78.84C78.9733 51.0867 79.1067 50.3467 79.24 49.52C79.3733 48.68 79.5 47.8067 79.62 46.9C79.7533 45.98 79.8733 45.0667 79.98 44.16C80.0867 43.24 80.18 42.3733 80.26 41.56ZM83.26 43.88L84.38 43.16C84.74 43.44 85.1133 43.7667 85.5 44.14C85.8867 44.5133 86.1867 44.84 86.4 45.12L85.22 45.94C85.0333 45.6467 84.7467 45.3067 84.36 44.92C83.9867 44.52 83.62 44.1733 83.26 43.88ZM82.72 48.02L83.9 47.28C84.3 47.5867 84.7133 47.94 85.14 48.34C85.58 48.74 85.92 49.1 86.16 49.42L84.94 50.26C84.7133 49.9533 84.3867 49.5867 83.96 49.16C83.5333 48.7333 83.12 48.3533 82.72 48.02ZM80.54 38.14H90.88V40.08H80.54V38.14ZM81.1 41.56H88.72V43.4H81.1V41.56ZM77.74 45.56H91.4V47.5H77.74V45.56ZM79.92 49.9H90.88V51.74H79.92V49.9ZM80.66 36.04L82.74 36.58C82.4733 37.4067 82.1467 38.2333 81.76 39.06C81.3867 39.8733 80.9867 40.64 80.56 41.36C80.1333 42.08 79.7 42.7133 79.26 43.26C79.1267 43.14 78.94 43.0067 78.7 42.86C78.4733 42.7133 78.2467 42.5667 78.02 42.42C77.7933 42.2733 77.5933 42.1533 77.42 42.06C77.8733 41.58 78.3 41.02 78.7 40.38C79.1133 39.7267 79.4867 39.0333 79.82 38.3C80.1533 37.5533 80.4333 36.8 80.66 36.04ZM88.1 41.56H90.1C90.1 41.56 90.0933 41.62 90.08 41.74C90.08 41.86 90.08 41.9933 90.08 42.14C90.08 42.2733 90.0733 42.3867 90.06 42.48C89.98 44.3867 89.9 46.0067 89.82 47.34C89.74 48.66 89.6467 49.7467 89.54 50.6C89.4467 51.4533 89.3333 52.12 89.2 52.6C89.08 53.08 88.9333 53.4267 88.76 53.64C88.5333 53.9467 88.2933 54.1533 88.04 54.26C87.8 54.38 87.52 54.4667 87.2 54.52C86.9067 54.56 86.5333 54.58 86.08 54.58C85.6267 54.58 85.1533 54.5667 84.66 54.54C84.6467 54.2733 84.5933 53.9733 84.5 53.64C84.4067 53.3067 84.28 53.0133 84.12 52.76C84.5867 52.8 85.0133 52.8267 85.4 52.84C85.7867 52.8533 86.0733 52.86 86.26 52.86C86.4333 52.86 86.5733 52.84 86.68 52.8C86.7867 52.7467 86.8933 52.66 87 52.54C87.1333 52.3933 87.2533 52.1 87.36 51.66C87.4667 51.2067 87.5667 50.5733 87.66 49.76C87.7533 48.9333 87.8333 47.8867 87.9 46.62C87.98 45.34 88.0467 43.7933 88.1 41.98V41.56ZM73.86 37.82L75.06 36.36C75.4467 36.5333 75.86 36.74 76.3 36.98C76.7533 37.22 77.18 37.4667 77.58 37.72C77.9933 37.9733 78.3267 38.2067 78.58 38.42L77.32 40.04C77.08 39.8267 76.76 39.5867 76.36 39.32C75.9733 39.04 75.5533 38.7733 75.1 38.52C74.66 38.2533 74.2467 38.02 73.86 37.82ZM72.74 43.54L73.9 42.1C74.2867 42.2733 74.6867 42.48 75.1 42.72C75.5267 42.9467 75.9267 43.18 76.3 43.42C76.6867 43.66 77 43.8867 77.24 44.1L76 45.74C75.7867 45.5133 75.4933 45.2667 75.12 45C74.7467 44.7333 74.3467 44.4733 73.92 44.22C73.5067 43.9667 73.1133 43.74 72.74 43.54ZM73.3 53.24C73.5667 52.72 73.86 52.1067 74.18 51.4C74.5133 50.6933 74.84 49.94 75.16 49.14C75.4933 48.34 75.8 47.5533 76.08 46.78L77.72 47.94C77.48 48.6467 77.2133 49.3733 76.92 50.12C76.64 50.8667 76.3467 51.6067 76.04 52.34C75.7467 53.0733 75.4533 53.76 75.16 54.4L73.3 53.24ZM96.38 39.02H101.24V41.06H96.38V39.02ZM103.9 36.08H106.16V54.74H103.9V36.08ZM94.54 43.74L95.96 42.4C96.4133 42.8 96.9 43.2467 97.42 43.74C97.94 44.2333 98.4333 44.72 98.9 45.2C99.38 45.68 99.7667 46.1067 100.06 46.48L98.52 48.02C98.2533 47.6333 97.8933 47.1933 97.44 46.7C96.9867 46.1933 96.5 45.68 95.98 45.16C95.4733 44.64 94.9933 44.1667 94.54 43.74ZM96.18 36.04L98.32 36.44C98.0533 37.7067 97.72 38.9467 97.32 40.16C96.9333 41.36 96.4867 42.48 95.98 43.52C95.4867 44.5467 94.94 45.4467 94.34 46.22C94.22 46.1 94.0467 45.9533 93.82 45.78C93.6067 45.6067 93.38 45.44 93.14 45.28C92.9133 45.1067 92.7133 44.9733 92.54 44.88C93.1267 44.1867 93.6533 43.38 94.12 42.46C94.5867 41.5267 94.9933 40.5133 95.34 39.42C95.6867 38.3267 95.9667 37.2 96.18 36.04ZM100.48 39.02H100.9L101.32 38.94L102.84 39.38C102.533 42.0733 102 44.4267 101.24 46.44C100.48 48.44 99.5333 50.12 98.4 51.48C97.2667 52.84 95.96 53.9133 94.48 54.7C94.3733 54.5267 94.2067 54.32 93.98 54.08C93.7667 53.8533 93.54 53.6267 93.3 53.4C93.0733 53.1867 92.8667 53.02 92.68 52.9C94.1333 52.2067 95.3933 51.2733 96.46 50.1C97.5267 48.9133 98.4 47.4533 99.08 45.72C99.76 43.9733 100.227 41.9133 100.48 39.54V39.02ZM105.26 43.34L106.94 42.1C107.433 42.5533 107.967 43.06 108.54 43.62C109.127 44.1667 109.68 44.7067 110.2 45.24C110.733 45.7733 111.167 46.2467 111.5 46.66L109.7 48.14C109.393 47.7133 108.987 47.22 108.48 46.66C107.973 46.0867 107.433 45.5133 106.86 44.94C106.3 44.3667 105.767 43.8333 105.26 43.34ZM126.02 40.46L128.24 41.08C127.427 43.5067 126.367 45.6067 125.06 47.38C123.753 49.14 122.173 50.6133 120.32 51.8C118.467 52.9867 116.32 53.9533 113.88 54.7C113.8 54.5267 113.68 54.3133 113.52 54.06C113.373 53.8067 113.213 53.5533 113.04 53.3C112.867 53.0467 112.707 52.84 112.56 52.68C114.933 52.0667 117 51.2333 118.76 50.18C120.52 49.1267 121.993 47.8067 123.18 46.22C124.38 44.62 125.327 42.7 126.02 40.46ZM117.9 40.6C118.62 42.5867 119.593 44.38 120.82 45.98C122.06 47.58 123.567 48.94 125.34 50.06C127.127 51.18 129.187 52.02 131.52 52.58C131.36 52.74 131.187 52.94 131 53.18C130.813 53.42 130.633 53.66 130.46 53.9C130.3 54.1533 130.167 54.38 130.06 54.58C127.62 53.9267 125.5 52.9867 123.7 51.76C121.9 50.52 120.36 49.02 119.08 47.26C117.813 45.4867 116.76 43.4733 115.92 41.22L117.9 40.6ZM112.92 39.48H131.18V41.58H112.92V39.48ZM120.3 36.54L122.58 35.88C122.86 36.3467 123.14 36.8667 123.42 37.44C123.7 38.0133 123.9 38.5133 124.02 38.94L121.6 39.68C121.493 39.2667 121.313 38.7667 121.06 38.18C120.82 37.58 120.567 37.0333 120.3 36.54ZM135.32 44.3H140.28V45.98H135.32V44.3ZM133.46 37.96H139.7V39.78H133.46V37.96ZM132.66 41.3H142.42V43.16H132.66V41.3ZM135.82 36.06H137.82V42.24H135.82V36.06ZM141.02 36.54L143 37.14C142.04 39.4333 140.773 41.46 139.2 43.22C137.627 44.9667 135.86 46.3867 133.9 47.48C133.807 47.3467 133.667 47.18 133.48 46.98C133.307 46.7667 133.127 46.56 132.94 46.36C132.753 46.1467 132.587 45.9733 132.44 45.84C134.373 44.8933 136.08 43.6267 137.56 42.04C139.04 40.44 140.193 38.6067 141.02 36.54ZM136.72 47.48H138.74V52.64C138.74 53.12 138.68 53.4933 138.56 53.76C138.453 54.04 138.233 54.2533 137.9 54.4C137.567 54.5333 137.167 54.6133 136.7 54.64C136.233 54.68 135.68 54.7 135.04 54.7C135 54.42 134.92 54.1067 134.8 53.76C134.693 53.4267 134.567 53.1333 134.42 52.88C134.847 52.8933 135.247 52.9 135.62 52.9C136.007 52.9 136.26 52.8933 136.38 52.88C136.527 52.88 136.62 52.86 136.66 52.82C136.7 52.78 136.72 52.7067 136.72 52.6V47.48ZM139.72 44.3H140.16L140.56 44.2L141.74 45.1C141.207 45.7267 140.58 46.36 139.86 47C139.14 47.6267 138.44 48.16 137.76 48.6C137.64 48.4267 137.473 48.2333 137.26 48.02C137.06 47.7933 136.88 47.6133 136.72 47.48C137.093 47.24 137.473 46.9533 137.86 46.62C138.247 46.2867 138.6 45.9467 138.92 45.6C139.253 45.2533 139.52 44.9333 139.72 44.64V44.3ZM132.64 49.06C133.467 48.9933 134.413 48.9067 135.48 48.8C136.547 48.6933 137.667 48.58 138.84 48.46C140.027 48.34 141.207 48.22 142.38 48.1L142.4 49.94C141.28 50.0733 140.147 50.2 139 50.32C137.853 50.44 136.753 50.56 135.7 50.68C134.66 50.7867 133.72 50.8867 132.88 50.98L132.64 49.06ZM144.06 39.74H151.34V41.72H144.06V39.74ZM144.42 36.06L146.58 36.4C146.353 37.7067 146.06 38.98 145.7 40.22C145.353 41.4467 144.94 42.5933 144.46 43.66C143.993 44.7133 143.46 45.6333 142.86 46.42C142.74 46.2867 142.573 46.1267 142.36 45.94C142.16 45.74 141.947 45.5467 141.72 45.36C141.493 45.1733 141.3 45.0267 141.14 44.92C141.7 44.24 142.187 43.4333 142.6 42.5C143.027 41.5533 143.387 40.5333 143.68 39.44C143.987 38.3333 144.233 37.2067 144.42 36.06ZM148.02 40.92L150.2 41.12C149.907 43.4 149.453 45.4133 148.84 47.16C148.227 48.8933 147.387 50.3933 146.32 51.66C145.253 52.9133 143.88 53.9667 142.2 54.82C142.12 54.6467 142.007 54.4333 141.86 54.18C141.713 53.94 141.56 53.6933 141.4 53.44C141.24 53.2 141.087 53.0067 140.94 52.86C142.473 52.1667 143.72 51.28 144.68 50.2C145.64 49.1067 146.38 47.7933 146.9 46.26C147.42 44.7133 147.793 42.9333 148.02 40.92ZM145.22 41.3C145.5 43.0333 145.893 44.66 146.4 46.18C146.92 47.7 147.593 49.0333 148.42 50.18C149.26 51.3267 150.3 52.22 151.54 52.86C151.38 53.0067 151.2 53.1867 151 53.4C150.813 53.6267 150.633 53.8533 150.46 54.08C150.287 54.32 150.147 54.5333 150.04 54.72C148.707 53.9333 147.6 52.9 146.72 51.62C145.84 50.34 145.127 48.8533 144.58 47.16C144.047 45.4667 143.613 43.62 143.28 41.62L145.22 41.3ZM153.8 39.56H170.22V49.42H167.98V41.68H155.96V49.52H153.8V39.56ZM154.92 46.26H169.24V48.38H154.92V46.26ZM160.82 36.06H163.08V54.72H160.82V36.06ZM177.9 41.74H180.12V51.24C180.12 51.72 180.193 52.0267 180.34 52.16C180.487 52.28 180.813 52.34 181.32 52.34C181.453 52.34 181.66 52.34 181.94 52.34C182.22 52.34 182.527 52.34 182.86 52.34C183.193 52.34 183.507 52.34 183.8 52.34C184.107 52.34 184.327 52.34 184.46 52.34C184.833 52.34 185.107 52.24 185.28 52.04C185.467 51.84 185.6 51.46 185.68 50.9C185.76 50.34 185.82 49.5267 185.86 48.46C186.033 48.58 186.24 48.7067 186.48 48.84C186.72 48.96 186.967 49.0667 187.22 49.16C187.473 49.2533 187.693 49.3267 187.88 49.38C187.8 50.6467 187.653 51.6467 187.44 52.38C187.24 53.1 186.92 53.6067 186.48 53.9C186.053 54.1933 185.433 54.34 184.62 54.34C184.513 54.34 184.34 54.34 184.1 54.34C183.86 54.34 183.587 54.34 183.28 54.34C182.973 54.34 182.673 54.34 182.38 54.34C182.087 54.34 181.82 54.34 181.58 54.34C181.34 54.34 181.173 54.34 181.08 54.34C180.253 54.34 179.607 54.2467 179.14 54.06C178.673 53.8733 178.347 53.5533 178.16 53.1C177.987 52.6467 177.9 52.02 177.9 51.22V41.74ZM174.38 43.02L176.48 43.42C176.4 44.26 176.28 45.18 176.12 46.18C175.973 47.1667 175.8 48.14 175.6 49.1C175.4 50.0467 175.18 50.9 174.94 51.66L172.76 50.76C173.013 50.0533 173.247 49.2667 173.46 48.4C173.687 47.5333 173.873 46.6333 174.02 45.7C174.18 44.7667 174.3 43.8733 174.38 43.02ZM186.88 43.2L188.88 42.4C189.253 43.1867 189.613 44.0333 189.96 44.94C190.307 45.8333 190.613 46.7133 190.88 47.58C191.16 48.4333 191.367 49.2067 191.5 49.9L189.34 50.8C189.233 50.12 189.053 49.34 188.8 48.46C188.547 47.58 188.253 46.68 187.92 45.76C187.587 44.84 187.24 43.9867 186.88 43.2ZM178.66 37.92L180.1 36.48C180.713 36.88 181.373 37.3267 182.08 37.82C182.787 38.3133 183.46 38.82 184.1 39.34C184.74 39.8467 185.253 40.3067 185.64 40.72L184.08 42.38C183.707 41.9667 183.213 41.5 182.6 40.98C181.987 40.4467 181.333 39.9133 180.64 39.38C179.947 38.8333 179.287 38.3467 178.66 37.92ZM204.8 39.84H211.34V41.72H204.8V39.84ZM205.32 36.06L207.1 36.38C206.873 37.6333 206.593 38.88 206.26 40.12C205.94 41.36 205.58 42.5333 205.18 43.64C204.78 44.7467 204.34 45.7267 203.86 46.58C203.767 46.46 203.633 46.3133 203.46 46.14C203.287 45.9667 203.107 45.8 202.92 45.64C202.747 45.4667 202.593 45.3267 202.46 45.22C202.913 44.4733 203.313 43.6067 203.66 42.62C204.02 41.6333 204.34 40.58 204.62 39.46C204.9 38.3267 205.133 37.1933 205.32 36.06ZM208.16 41.04L210 41.18C209.76 43.4733 209.367 45.4867 208.82 47.22C208.273 48.9533 207.493 50.44 206.48 51.68C205.48 52.92 204.16 53.96 202.52 54.8C202.467 54.6533 202.373 54.48 202.24 54.28C202.12 54.08 201.987 53.88 201.84 53.68C201.707 53.48 201.587 53.32 201.48 53.2C202.987 52.5067 204.193 51.6067 205.1 50.5C206.02 49.3933 206.713 48.06 207.18 46.5C207.66 44.9267 207.987 43.1067 208.16 41.04ZM205.8 41.62C206.053 43.3133 206.407 44.9133 206.86 46.42C207.313 47.9133 207.92 49.2267 208.68 50.36C209.453 51.4933 210.413 52.38 211.56 53.02C211.413 53.14 211.253 53.2933 211.08 53.48C210.907 53.68 210.74 53.8867 210.58 54.1C210.433 54.3133 210.307 54.5067 210.2 54.68C209.013 53.9067 208.027 52.8867 207.24 51.62C206.467 50.3533 205.847 48.8933 205.38 47.24C204.927 45.5733 204.56 43.7733 204.28 41.84L205.8 41.62ZM197.36 36.06H198.98V46.7H197.36V36.06ZM195.72 38.66V41.76H200.74V38.66H195.72ZM194.1 37.28H202.44V43.14H194.1V37.28ZM195.5 45.04V46.04H200.9V45.04H195.5ZM193.72 43.8H202.76V47.28H193.72V43.8ZM192.7 39.36H194.66V39.48H201.36V39.36H203.54V40.92H201.36V40.8H194.66V40.92H192.7V39.36ZM193.98 51.36C194.327 50.9333 194.68 50.4533 195.04 49.92C195.4 49.3733 195.74 48.8133 196.06 48.24C196.393 47.6533 196.673 47.1 196.9 46.58L198.6 46.96C198.347 47.52 198.053 48.0933 197.72 48.68C197.387 49.2533 197.047 49.8067 196.7 50.34C196.353 50.8733 196.027 51.34 195.72 51.74L193.98 51.36ZM193.98 51.36L195.34 50.24C196.167 50.44 197.033 50.6933 197.94 51C198.847 51.3067 199.707 51.6333 200.52 51.98C201.333 52.3133 202.04 52.64 202.64 52.96L201.28 54.18C200.72 53.8467 200.027 53.5 199.2 53.14C198.387 52.7933 197.527 52.46 196.62 52.14C195.713 51.82 194.833 51.56 193.98 51.36ZM199.94 47.64H201.64V48.54C201.64 48.9667 201.587 49.4133 201.48 49.88C201.373 50.3333 201.16 50.7933 200.84 51.26C200.533 51.7133 200.073 52.1533 199.46 52.58C198.86 53.0067 198.06 53.4 197.06 53.76C196.073 54.1333 194.847 54.4533 193.38 54.72C193.3 54.52 193.173 54.28 193 54C192.84 53.72 192.68 53.5 192.52 53.34C193.867 53.1133 194.987 52.8533 195.88 52.56C196.787 52.2533 197.507 51.9267 198.04 51.58C198.587 51.2333 198.993 50.88 199.26 50.52C199.54 50.16 199.72 49.8067 199.8 49.46C199.893 49.1133 199.94 48.7867 199.94 48.48V47.64ZM192.86 48.28H203.4V49.74H192.86V48.28ZM219.28 39.5H230.4V41.6H219.28V39.5ZM220.5 42.82L222.44 42.38C222.6 43.06 222.753 43.7733 222.9 44.52C223.047 45.2667 223.18 46.0067 223.3 46.74C223.433 47.4733 223.547 48.1733 223.64 48.84C223.733 49.4933 223.807 50.08 223.86 50.6L221.74 51.2C221.7 50.68 221.64 50.08 221.56 49.4C221.48 48.72 221.38 48.0067 221.26 47.26C221.153 46.5 221.033 45.74 220.9 44.98C220.78 44.22 220.647 43.5 220.5 42.82ZM227.24 42.3L229.5 42.64C229.353 43.48 229.193 44.3533 229.02 45.26C228.847 46.1533 228.66 47.0467 228.46 47.94C228.273 48.82 228.073 49.66 227.86 50.46C227.66 51.26 227.467 51.98 227.28 52.62L225.42 52.22C225.607 51.5667 225.787 50.8333 225.96 50.02C226.147 49.1933 226.32 48.3333 226.48 47.44C226.653 46.5333 226.807 45.64 226.94 44.76C227.073 43.88 227.173 43.06 227.24 42.3ZM218.52 51.86H231.12V53.92H218.52V51.86ZM223.16 36.32L225.2 35.82C225.387 36.3 225.573 36.8267 225.76 37.4C225.96 37.9733 226.113 38.4733 226.22 38.9L224.08 39.5C224 39.0733 223.867 38.5667 223.68 37.98C223.507 37.38 223.333 36.8267 223.16 36.32ZM217.32 36.14L219.34 36.76C218.913 37.8933 218.407 39.0267 217.82 40.16C217.233 41.28 216.6 42.3467 215.92 43.36C215.24 44.36 214.533 45.24 213.8 46C213.747 45.8267 213.647 45.6 213.5 45.32C213.367 45.04 213.22 44.76 213.06 44.48C212.913 44.1867 212.773 43.9533 212.64 43.78C213.267 43.1667 213.867 42.4533 214.44 41.64C215.027 40.8133 215.567 39.9333 216.06 39C216.553 38.0667 216.973 37.1133 217.32 36.14ZM215.28 41.56L217.44 39.4V39.42V54.7H215.28V41.56ZM234.76 36.78H239.3V38.76H234.76V36.78ZM234.76 41.36H239.38V43.34H234.76V41.36ZM242.58 43.72H249.66V45.68H242.58V43.72ZM234.74 46.04H239.3V48.06H234.74V46.04ZM233.92 36.78H235.86V44.04C235.86 44.8267 235.84 45.6933 235.8 46.64C235.76 47.5733 235.687 48.5267 235.58 49.5C235.473 50.46 235.313 51.3933 235.1 52.3C234.887 53.2067 234.613 54.0267 234.28 54.76C234.16 54.6533 233.993 54.5333 233.78 54.4C233.567 54.28 233.347 54.16 233.12 54.04C232.893 53.92 232.7 53.8333 232.54 53.78C232.86 53.0867 233.113 52.3333 233.3 51.52C233.487 50.6933 233.62 49.8467 233.7 48.98C233.793 48.1133 233.853 47.26 233.88 46.42C233.907 45.5667 233.92 44.7733 233.92 44.04V36.78ZM238.1 36.78H240.1V52.36C240.1 52.8533 240.047 53.26 239.94 53.58C239.833 53.9133 239.627 54.1667 239.32 54.34C239.027 54.5133 238.653 54.62 238.2 54.66C237.76 54.7133 237.207 54.74 236.54 54.74C236.527 54.5533 236.487 54.3333 236.42 54.08C236.367 53.8267 236.3 53.5733 236.22 53.32C236.14 53.0667 236.053 52.8533 235.96 52.68C236.36 52.6933 236.727 52.7 237.06 52.7C237.407 52.7 237.64 52.6933 237.76 52.68C237.88 52.68 237.967 52.66 238.02 52.62C238.073 52.5667 238.1 52.4667 238.1 52.32V36.78ZM248.36 36.8H250.42V40.68C250.42 41.16 250.353 41.54 250.22 41.82C250.087 42.1 249.827 42.3133 249.44 42.46C249.067 42.5933 248.6 42.6733 248.04 42.7C247.493 42.7267 246.84 42.74 246.08 42.74C246.04 42.4467 245.953 42.1333 245.82 41.8C245.687 41.4667 245.553 41.18 245.42 40.94C245.78 40.94 246.133 40.9467 246.48 40.96C246.827 40.9733 247.133 40.98 247.4 40.98C247.667 40.9667 247.853 40.96 247.96 40.96C248.12 40.96 248.227 40.94 248.28 40.9C248.333 40.8467 248.36 40.76 248.36 40.64V36.8ZM249.06 43.72H249.42L249.78 43.66L251.04 44.08C250.733 45.8 250.273 47.34 249.66 48.7C249.06 50.06 248.327 51.24 247.46 52.24C246.607 53.2267 245.64 54.04 244.56 54.68C244.44 54.44 244.253 54.16 244 53.84C243.76 53.5333 243.533 53.2933 243.32 53.12C244.267 52.6133 245.127 51.92 245.9 51.04C246.673 50.1467 247.333 49.1067 247.88 47.92C248.427 46.7333 248.82 45.4533 249.06 44.08V43.72ZM245.28 45.02C245.64 46.1933 246.12 47.3067 246.72 48.36C247.32 49.4133 248.027 50.3467 248.84 51.16C249.667 51.9733 250.593 52.62 251.62 53.1C251.393 53.2867 251.147 53.54 250.88 53.86C250.627 54.1933 250.42 54.4867 250.26 54.74C249.193 54.1667 248.233 53.42 247.38 52.5C246.527 51.5667 245.787 50.5067 245.16 49.32C244.533 48.12 244.013 46.8333 243.6 45.46L245.28 45.02ZM241.4 36.8H248.9V38.8H243.42V54.74H241.4V36.8ZM253.1 37H259.72V38.82H253.1V37ZM261.02 47.28H269.3V49.06H261.02V47.28ZM252.84 43.1H260.3V44.98H252.84V43.1ZM256.16 43.86H258.2V52.38C258.2 52.8733 258.147 53.2733 258.04 53.58C257.933 53.8867 257.713 54.1267 257.38 54.3C257.06 54.46 256.673 54.56 256.22 54.6C255.78 54.64 255.253 54.66 254.64 54.66C254.6 54.3667 254.52 54.0267 254.4 53.64C254.28 53.2533 254.153 52.9133 254.02 52.62C254.407 52.6333 254.773 52.6467 255.12 52.66C255.48 52.66 255.72 52.66 255.84 52.66C255.96 52.6467 256.04 52.62 256.08 52.58C256.133 52.54 256.16 52.4667 256.16 52.36V43.86ZM268.6 47.28H270.78C270.78 47.28 270.773 47.3867 270.76 47.6C270.747 47.8 270.727 47.9733 270.7 48.12C270.593 49.2933 270.473 50.2667 270.34 51.04C270.22 51.8 270.087 52.4067 269.94 52.86C269.793 53.3 269.62 53.62 269.42 53.82C269.22 54.0467 269.007 54.2 268.78 54.28C268.567 54.3733 268.313 54.44 268.02 54.48C267.78 54.5067 267.46 54.52 267.06 54.52C266.66 54.5333 266.233 54.5333 265.78 54.52C265.767 54.2133 265.707 53.8733 265.6 53.5C265.493 53.1267 265.36 52.8067 265.2 52.54C265.587 52.5667 265.94 52.5867 266.26 52.6C266.58 52.6133 266.82 52.62 266.98 52.62C267.14 52.62 267.267 52.6067 267.36 52.58C267.467 52.5533 267.567 52.4933 267.66 52.4C267.78 52.28 267.893 52.0467 268 51.7C268.12 51.34 268.227 50.8267 268.32 50.16C268.427 49.48 268.52 48.6133 268.6 47.56V47.28ZM264.3 45.42H266.44C266.36 46.4467 266.22 47.4267 266.02 48.36C265.833 49.28 265.533 50.14 265.12 50.94C264.707 51.7267 264.133 52.44 263.4 53.08C262.667 53.7333 261.713 54.2867 260.54 54.74C260.42 54.4867 260.24 54.1933 260 53.86C259.76 53.54 259.527 53.28 259.3 53.08C260.34 52.7067 261.173 52.2533 261.8 51.72C262.427 51.1867 262.907 50.5933 263.24 49.94C263.587 49.2867 263.833 48.58 263.98 47.82C264.127 47.06 264.233 46.26 264.3 45.42ZM253.62 40.94L254.96 39.56C255.52 39.76 256.107 40.0067 256.72 40.3C257.333 40.5933 257.92 40.8933 258.48 41.2C259.04 41.5067 259.507 41.8 259.88 42.08L258.44 43.62C258.107 43.34 257.667 43.04 257.12 42.72C256.573 42.3867 255.993 42.0667 255.38 41.76C254.767 41.44 254.18 41.1667 253.62 40.94ZM259.76 43.1H260.06L260.34 43L261.64 43.42C261.467 44.3133 261.253 45.2267 261 46.16C260.747 47.0933 260.473 47.8933 260.18 48.56L258.74 47.86C258.94 47.3 259.133 46.6067 259.32 45.78C259.52 44.94 259.667 44.1467 259.76 43.4V43.1ZM267.78 38.98L270.02 39.32C269.567 40.5467 268.94 41.6 268.14 42.48C267.353 43.3467 266.42 44.0733 265.34 44.66C264.273 45.2333 263.087 45.7133 261.78 46.1C261.7 45.94 261.58 45.7467 261.42 45.52C261.273 45.2933 261.107 45.0733 260.92 44.86C260.747 44.6333 260.593 44.4533 260.46 44.32C261.687 44.0533 262.793 43.6933 263.78 43.24C264.767 42.7733 265.6 42.1933 266.28 41.5C266.973 40.7933 267.473 39.9533 267.78 38.98ZM263.7 36.04L265.72 36.6C265.4 37.32 265.013 38.02 264.56 38.7C264.107 39.3667 263.627 39.9933 263.12 40.58C262.627 41.1533 262.127 41.66 261.62 42.1C261.487 41.98 261.313 41.8467 261.1 41.7C260.887 41.54 260.667 41.3867 260.44 41.24C260.227 41.0933 260.033 40.98 259.86 40.9C260.66 40.3267 261.4 39.6133 262.08 38.76C262.76 37.8933 263.3 36.9867 263.7 36.04ZM263.8 39.48C264.267 40.2667 264.88 40.9867 265.64 41.64C266.4 42.28 267.28 42.8267 268.28 43.28C269.293 43.7333 270.387 44.08 271.56 44.32C271.413 44.4533 271.253 44.6333 271.08 44.86C270.907 45.0733 270.74 45.2933 270.58 45.52C270.433 45.7333 270.307 45.94 270.2 46.14C268.973 45.82 267.847 45.3733 266.82 44.8C265.793 44.2267 264.873 43.54 264.06 42.74C263.247 41.94 262.567 41.0467 262.02 40.06L263.8 39.48ZM255.94 43.72L257.34 44.26C257.1 45.14 256.787 46.04 256.4 46.96C256.013 47.88 255.58 48.74 255.1 49.54C254.62 50.3267 254.1 50.98 253.54 51.5C253.447 51.1933 253.3 50.8467 253.1 50.46C252.9 50.0733 252.713 49.7333 252.54 49.44C253.02 49.0133 253.48 48.4867 253.92 47.86C254.36 47.2333 254.753 46.5667 255.1 45.86C255.46 45.14 255.74 44.4267 255.94 43.72ZM263.54 38.12H271.06V39.9H262.68L263.54 38.12ZM259.2 37H259.68L260 36.92L261.38 37.78C261.073 38.2467 260.707 38.7333 260.28 39.24C259.853 39.7333 259.4 40.2 258.92 40.64C258.44 41.0667 257.96 41.4467 257.48 41.78C257.293 41.6067 257.06 41.4267 256.78 41.24C256.513 41.04 256.273 40.8733 256.06 40.74C256.487 40.4467 256.9 40.1067 257.3 39.72C257.7 39.3333 258.067 38.9333 258.4 38.52C258.747 38.0933 259.013 37.7133 259.2 37.38V37ZM274.02 37.34H289.94V39.46H274.02V37.34ZM272.96 45.82H291.1V47.98H272.96V45.82ZM275.28 40.78L277.22 40.18C277.473 40.6333 277.707 41.1133 277.92 41.62C278.147 42.1267 278.347 42.6267 278.52 43.12C278.707 43.6 278.84 44.0267 278.92 44.4L276.84 45.08C276.773 44.6933 276.66 44.26 276.5 43.78C276.34 43.2867 276.153 42.78 275.94 42.26C275.727 41.7267 275.507 41.2333 275.28 40.78ZM286.72 40.12L289.02 40.72C288.793 41.24 288.54 41.7667 288.26 42.3C287.993 42.82 287.733 43.32 287.48 43.8C287.227 44.28 286.98 44.7067 286.74 45.08L284.86 44.5C285.087 44.1 285.32 43.6467 285.56 43.14C285.8 42.6333 286.02 42.12 286.22 41.6C286.42 41.0667 286.587 40.5733 286.72 40.12ZM280.86 38.22H283.1V54.72H280.86V38.22ZM296.38 51.6H307.48V53.68H296.38V51.6ZM295.32 46H308.68V54.7H306.38V48.06H297.52V54.72H295.32V46ZM303.74 39.14L305.42 38.02C306.033 38.5933 306.68 39.2333 307.36 39.94C308.053 40.6333 308.7 41.3267 309.3 42.02C309.9 42.7133 310.373 43.34 310.72 43.9L308.9 45.24C308.567 44.6667 308.113 44.0267 307.54 43.32C306.98 42.6 306.36 41.88 305.68 41.16C305.013 40.4267 304.367 39.7533 303.74 39.14ZM294.56 44.56C294.533 44.4267 294.473 44.2333 294.38 43.98C294.3 43.7267 294.213 43.4667 294.12 43.2C294.027 42.92 293.933 42.6867 293.84 42.5C294.107 42.4467 294.367 42.32 294.62 42.12C294.887 41.92 295.187 41.66 295.52 41.34C295.693 41.18 295.947 40.92 296.28 40.56C296.627 40.1867 297.007 39.7467 297.42 39.24C297.833 38.7333 298.253 38.1867 298.68 37.6C299.12 37 299.52 36.4 299.88 35.8L302.04 36.74C301.44 37.5933 300.793 38.4333 300.1 39.26C299.407 40.0733 298.7 40.84 297.98 41.56C297.26 42.2667 296.553 42.9067 295.86 43.48V43.54C295.86 43.54 295.793 43.5733 295.66 43.64C295.527 43.7067 295.373 43.7933 295.2 43.9C295.027 44.0067 294.873 44.12 294.74 44.24C294.62 44.36 294.56 44.4667 294.56 44.56ZM294.56 44.56L294.52 42.9L296 42.12L308.44 41.66C308.453 41.9533 308.48 42.2933 308.52 42.68C308.56 43.0667 308.6 43.3733 308.64 43.6C306.707 43.6933 305.027 43.78 303.6 43.86C302.187 43.9267 300.993 43.9867 300.02 44.04C299.047 44.08 298.24 44.1267 297.6 44.18C296.96 44.22 296.447 44.26 296.06 44.3C295.673 44.3267 295.367 44.3667 295.14 44.42C294.927 44.46 294.733 44.5067 294.56 44.56Z" fill="#FDF8F6" style="fill:#FDF8F6;fill:color(display-p3 0.9922 0.9725 0.9647);fill-opacity:1;"/>
<defs>
<clipPath id="clip0_24203_11442">
<rect width="56" height="56" fill="white" style="fill:white;fill-opacity:1;" transform="translate(0 2)"/>
</clipPath>
</defs>
</svg>
