<svg width="40" height="40" viewBox="0 0 40 40" fill="none" xmlns="http://www.w3.org/2000/svg">
<g clip-path="url(#clip0_24158_2160)">
<circle opacity="0.2" cx="20" cy="20" r="20" fill="white" style="fill:white;fill-opacity:1;"/>
<path d="M20.3404 9.89966C23.6341 9.89966 24.0241 9.9141 25.3194 9.97186C26.5233 10.0248 27.1733 10.227 27.6067 10.3954C28.1798 10.6169 28.5939 10.8864 29.0224 11.3148C29.4558 11.748 29.7207 12.1572 29.9422 12.73C30.1107 13.1632 30.3129 13.8178 30.3659 15.0163C30.4237 16.316 30.4381 16.7059 30.4381 19.9934C30.4381 23.2858 30.4237 23.6757 30.3659 24.9705C30.3129 26.1739 30.1107 26.8237 29.9422 27.2569C29.7207 27.8297 29.451 28.2437 29.0224 28.6721C28.5891 29.1053 28.1798 29.37 27.6067 29.5914C27.1733 29.7599 26.5185 29.9621 25.3194 30.015C24.0193 30.0728 23.6293 30.0872 20.3404 30.0872C17.0467 30.0872 16.6567 30.0728 15.3614 30.015C14.1575 29.9621 13.5075 29.7599 13.0741 29.5914C12.5011 29.37 12.0869 29.1005 11.6584 28.6721C11.225 28.2389 10.9602 27.8297 10.7387 27.2569C10.5701 26.8237 10.3679 26.1691 10.3149 24.9705C10.2571 23.6709 10.2427 23.281 10.2427 19.9934C10.2427 16.7011 10.2571 16.3112 10.3149 15.0163C10.3679 13.813 10.5701 13.1632 10.7387 12.73C10.9602 12.1572 11.2298 11.7432 11.6584 11.3148C12.0918 10.8816 12.5011 10.6169 13.0741 10.3954C13.5075 10.227 14.1623 10.0248 15.3614 9.97186C16.6567 9.9141 17.0467 9.89966 20.3404 9.89966ZM20.3404 7.68066C16.9938 7.68066 16.5748 7.6951 15.2602 7.75287C13.9505 7.81063 13.05 8.02242 12.2699 8.32566C11.4561 8.64335 10.7675 9.06212 10.0838 9.75044C9.39518 10.434 8.97625 11.1223 8.65844 11.9309C8.35507 12.7155 8.1432 13.6108 8.08541 14.9201C8.02763 16.239 8.01318 16.6577 8.01318 20.0031C8.01318 23.3484 8.02763 23.7672 8.08541 25.0812C8.1432 26.3905 8.35507 27.2906 8.65844 28.0704C8.97625 28.8839 9.39518 29.5722 10.0838 30.2557C10.7675 30.9392 11.4561 31.3628 12.2651 31.6757C13.05 31.9789 13.9457 32.1907 15.2554 32.2485C16.57 32.3062 16.9889 32.3207 20.3356 32.3207C23.6822 32.3207 24.1012 32.3062 25.4158 32.2485C26.7255 32.1907 27.626 31.9789 28.4061 31.6757C29.215 31.3628 29.9036 30.9392 30.5874 30.2557C31.2712 29.5722 31.6949 28.8839 32.0079 28.0752C32.3113 27.2906 32.5232 26.3953 32.581 25.0861C32.6387 23.772 32.6532 23.3532 32.6532 20.0079C32.6532 16.6625 32.6387 16.2438 32.581 14.9297C32.5232 13.6204 32.3113 12.7203 32.0079 11.9406C31.7046 11.1223 31.2856 10.434 30.597 9.75044C29.9133 9.06693 29.2247 8.64335 28.4157 8.33048C27.6308 8.02723 26.7352 7.81544 25.4254 7.75768C24.106 7.6951 23.6871 7.68066 20.3404 7.68066Z" fill="white" style="fill:white;fill-opacity:1;"/>
<path d="M20.3404 13.6734C16.8445 13.6734 14.0083 16.5085 14.0083 20.0031C14.0083 23.4976 16.8445 26.3327 20.3404 26.3327C23.8363 26.3327 26.6726 23.4976 26.6726 20.0031C26.6726 16.5085 23.8363 13.6734 20.3404 13.6734ZM20.3404 24.1089C18.0724 24.1089 16.2329 22.2702 16.2329 20.0031C16.2329 17.7359 18.0724 15.8972 20.3404 15.8972C22.6084 15.8972 24.4479 17.7359 24.4479 20.0031C24.4479 22.2702 22.6084 24.1089 20.3404 24.1089Z" fill="white" style="fill:white;fill-opacity:1;"/>
<path d="M28.4013 13.4231C28.4013 14.2413 27.7367 14.9008 26.9229 14.9008C26.1043 14.9008 25.4446 14.2365 25.4446 13.4231C25.4446 12.6048 26.1092 11.9453 26.9229 11.9453C27.7367 11.9453 28.4013 12.6096 28.4013 13.4231Z" fill="white" style="fill:white;fill-opacity:1;"/>
</g>
<defs>
<clipPath id="clip0_24158_2160">
<rect width="40" height="40" rx="20" fill="white" style="fill:white;fill-opacity:1;"/>
</clipPath>
</defs>
</svg>
