<svg width="40" height="40" viewBox="0 0 40 40" fill="none" xmlns="http://www.w3.org/2000/svg">
<g clip-path="url(#clip0_24158_2148)">
<circle opacity="0.2" cx="20" cy="20" r="20" fill="white" style="fill:white;fill-opacity:1;"/>
<path d="M19.9949 8.42725C27.2662 8.42725 33.1902 13.2375 33.1902 19.1362C33.1902 21.4981 32.2624 23.6249 30.3582 25.7271C27.5881 28.9175 21.4046 32.7887 19.9949 33.3823C18.5857 33.9755 18.796 33.0111 18.8455 32.6772C18.8702 32.5454 18.9321 32.1704 19.031 31.5522C19.0805 31.206 19.1299 30.6859 18.9939 30.3521C18.8454 29.9812 18.2636 29.7957 17.8308 29.6968C11.4872 28.8681 6.80058 24.4288 6.80054 19.1362C6.80054 13.2377 12.7114 8.42744 19.9949 8.42725ZM11.1697 16.0825C11.0338 16.0826 10.9227 16.1937 10.9226 16.3296V22.0923C10.9226 22.2283 11.0337 22.3393 11.1697 22.3394H14.8796C15.0157 22.3394 15.1267 22.2283 15.1267 22.0923V21.1528C15.1267 21.0168 15.0157 20.9058 14.8796 20.9058H12.3572V16.3296C12.3571 16.1938 12.2459 16.0827 12.1101 16.0825H11.1697ZM16.1658 16.0825C16.0293 16.0826 15.9187 16.193 15.9187 16.3296V22.0923C15.9188 22.2287 16.0293 22.3393 16.1658 22.3394H17.1062C17.2425 22.3391 17.3531 22.2286 17.3533 22.0923V16.3296C17.3533 16.1931 17.2426 16.0828 17.1062 16.0825H16.1658ZM18.5154 16.0825C18.3794 16.0825 18.2556 16.1936 18.2556 16.3296V22.0923C18.2558 22.2282 18.3794 22.3394 18.5154 22.3394H19.4431C19.5912 22.3392 19.7027 22.2281 19.7029 22.0923V18.6665L22.3367 22.228C22.3531 22.2527 22.3736 22.2731 22.3982 22.2896H22.4109C22.4109 22.2977 22.4146 22.3021 22.4226 22.3022C22.4226 22.3022 22.4271 22.3067 22.4353 22.3149H22.4597V22.3267H22.4851C22.5016 22.3349 22.522 22.3394 22.5466 22.3394H23.4744C23.6225 22.3392 23.734 22.2281 23.7341 22.0923V16.3296C23.7341 16.1936 23.6226 16.0826 23.4744 16.0825H22.5466C22.4106 16.0825 22.2869 16.1936 22.2869 16.3296V19.7427L19.6531 16.1929C19.6529 16.1848 19.6485 16.1765 19.6404 16.1685L19.6033 16.1313H19.5916C19.5915 16.1233 19.587 16.1197 19.5789 16.1196C19.5789 16.1196 19.5789 16.1151 19.5789 16.1069H19.5544L19.5417 16.0942H19.5291C19.5211 16.0942 19.5175 16.0904 19.5173 16.0825H18.5154ZM24.8835 16.0825C24.7476 16.0826 24.6365 16.1936 24.6365 16.3296V22.0923C24.6366 22.2281 24.7477 22.3392 24.8835 22.3394H28.5935C28.7295 22.3394 28.8404 22.2282 28.8406 22.0923V21.1519C28.8404 21.016 28.7294 20.9048 28.5935 20.9048H26.071V19.9282H28.5935C28.7295 19.9282 28.8406 19.8162 28.8406 19.6802V18.7407C28.8405 18.6047 28.7295 18.4937 28.5935 18.4937H26.071V17.5161H28.5935C28.7295 17.5161 28.8406 17.4051 28.8406 17.269V16.3296C28.8406 16.1936 28.7295 16.0825 28.5935 16.0825H24.8835Z" fill="white" style="fill:white;fill-opacity:1;"/>
</g>
<defs>
<clipPath id="clip0_24158_2148">
<rect width="40" height="40" rx="20" fill="white" style="fill:white;fill-opacity:1;"/>
</clipPath>
</defs>
</svg>
