<svg width="40" height="40" viewBox="0 0 40 40" fill="none" xmlns="http://www.w3.org/2000/svg">
<g clip-path="url(#clip0_24158_2176)">
<circle opacity="0.2" cx="20" cy="20" r="20" fill="white" style="fill:white;fill-opacity:1;"/>
<path d="M27.5421 10.9316C28.7427 10.9316 30.0313 10.9568 31.0109 11.6514C32.2757 12.5471 32.6202 14.2511 32.7785 15.793C33.0708 18.6329 33.0744 21.5029 32.7892 24.3428C32.6708 25.5137 32.4746 26.752 31.7033 27.6406C30.939 28.5221 29.8046 28.8614 28.6154 28.9912L28.6144 28.9932C28.0099 29.0588 27.3911 29.0698 26.798 29.0684C22.1708 29.0641 17.5429 29.0595 12.9171 29.0566C11.4614 29.0566 9.87611 29.0095 8.75111 28.084C7.48344 27.0385 7.21902 25.2253 7.11635 23.585C6.97378 21.3372 6.96232 19.0822 7.07924 16.833C7.14341 15.5978 7.25634 14.3321 7.78822 13.2139C8.17038 12.4109 8.80765 11.6889 9.62318 11.3096C10.5714 10.8688 11.5641 10.9477 12.5851 10.9463C15.0291 10.9434 17.4731 10.9423 19.9171 10.9395C22.4582 10.9366 25.0011 10.9345 27.5421 10.9316ZM17.2423 23.9844L24.1378 20.002L17.2423 16.0195V23.9844Z" fill="white" style="fill:white;fill-opacity:1;"/>
</g>
<defs>
<clipPath id="clip0_24158_2176">
<rect width="40" height="40" rx="20" fill="white" style="fill:white;fill-opacity:1;"/>
</clipPath>
</defs>
</svg>
